<svg width="24" height="24" viewBox="0 0 24 24" fill="none" xmlns="http://www.w3.org/2000/svg">
<path d="M15.375 15.75C15.9963 15.75 16.5 15.2463 16.5 14.625C16.5 14.0037 15.9963 13.5 15.375 13.5C14.7537 13.5 14.25 14.0037 14.25 14.625C14.25 15.2463 14.7537 15.75 15.375 15.75Z" fill="white"/>
<path d="M8.625 15.75C9.24632 15.75 9.75 15.2463 9.75 14.625C9.75 14.0037 9.24632 13.5 8.625 13.5C8.00368 13.5 7.5 14.0037 7.5 14.625C7.5 15.2463 8.00368 15.75 8.625 15.75Z" fill="white"/>
<path fill-rule="evenodd" clip-rule="evenodd" d="M15.4202 7.42519C14.3242 6.97494 13.1502 6.74551 11.9654 6.75007L11.9651 6.75007C7.00717 6.76734 3 10.8656 3 15.8532V18.0001H21V15.7501C21 14.5653 20.7661 13.3921 20.3116 12.2979C19.8572 11.2037 19.1911 10.21 18.3517 9.37384C17.5123 8.53766 16.5161 7.87544 15.4202 7.42519ZM11.9599 5.25008C13.3421 5.2448 14.7117 5.51246 15.9902 6.03772C17.2688 6.56302 18.4311 7.3356 19.4104 8.31114C20.3897 9.28669 21.1667 10.446 21.6969 11.7226C22.2271 12.9991 22.5 14.3678 22.5 15.7501V18.0001C22.5 18.3979 22.342 18.7794 22.0607 19.0607C21.7794 19.342 21.3978 19.5001 21 19.5001H3C2.60218 19.5001 2.22065 19.342 1.93934 19.0607C1.65803 18.7794 1.5 18.3979 1.5 18.0001V15.8532C1.5 10.0597 6.15519 5.27045 11.9596 5.25008" fill="white"/>
<path fill-rule="evenodd" clip-rule="evenodd" d="M2.46967 4.71967C2.76256 4.42678 3.23744 4.42678 3.53033 4.71967L6.44595 7.63529C6.73885 7.92819 6.73885 8.40306 6.44595 8.69595C6.15306 8.98885 5.67819 8.98885 5.38529 8.69595L2.46967 5.78033C2.17678 5.48744 2.17678 5.01256 2.46967 4.71967Z" fill="white"/>
<path fill-rule="evenodd" clip-rule="evenodd" d="M21.5307 4.71967C21.8236 5.01256 21.8236 5.48744 21.5307 5.78033L18.6338 8.67721C18.341 8.9701 17.8661 8.9701 17.5732 8.67721C17.2803 8.38431 17.2803 7.90944 17.5732 7.61655L20.4701 4.71967C20.763 4.42678 21.2378 4.42678 21.5307 4.71967Z" fill="white"/>
</svg>
