<svg width="24" height="24" viewBox="0 0 24 24" fill="none" xmlns="http://www.w3.org/2000/svg">
<circle cx="12" cy="12" r="11.5" stroke="#E0E4EB"/>
<path fill-rule="evenodd" clip-rule="evenodd" d="M7.20001 11.9994C7.20001 11.668 7.46864 11.3994 7.80001 11.3994H16.2C16.5314 11.3994 16.8 11.668 16.8 11.9994C16.8 12.3308 16.5314 12.5994 16.2 12.5994H7.80001C7.46864 12.5994 7.20001 12.3308 7.20001 11.9994Z" fill="#E0E4EB"/>
<path fill-rule="evenodd" clip-rule="evenodd" d="M11.5757 7.37593C11.81 7.14162 12.1899 7.14162 12.4242 7.37593L16.6242 11.5759C16.8585 11.8102 16.8585 12.1901 16.6242 12.4245L12.4242 16.6245C12.1899 16.8588 11.81 16.8588 11.5757 16.6245C11.3414 16.3901 11.3414 16.0102 11.5757 15.7759L15.3514 12.0002L11.5757 8.22446C11.3414 7.99014 11.3414 7.61025 11.5757 7.37593Z" fill="#E0E4EB"/>
</svg>
