<svg width="2009" height="258" viewBox="0 0 2009 258" fill="none" xmlns="http://www.w3.org/2000/svg">
<path opacity="0.4" d="M2009 150.995C2006.56 149.225 2004.06 147.523 2001.69 145.672C1996.01 141.247 1990.36 136.777 1984.74 132.28C1979.11 127.778 1973.55 123.194 1967.91 118.692C1962.4 114.295 1956.83 109.979 1951.32 105.586C1946.43 101.692 1941.61 97.7351 1936.74 93.8232C1931.29 89.4484 1925.84 85.0873 1920.38 80.7307C1915.45 76.7961 1910.5 72.8706 1905.56 68.9542C1899.98 64.5295 1894.37 60.132 1888.79 55.6982C1883.38 51.4006 1878 47.0667 1872.6 42.7599C1866.04 37.5275 1859.47 32.3131 1852.92 27.0716C1850.3 24.9795 1847.76 22.8057 1845.13 20.7318C1842.7 18.8167 1840.47 19.0753 1838.65 21.4987C1832.9 29.1455 1827.23 36.8467 1821.46 44.4708C1814.88 53.1659 1808.22 61.7975 1801.6 70.4654C1797.69 75.5935 1793.79 80.7397 1789.88 85.8769C1784.19 93.3739 1778.49 100.871 1772.79 108.368C1767.54 115.275 1762.32 122.2 1757.03 129.076C1750.14 138.011 1743.16 146.874 1736.29 155.823C1730.15 163.824 1724.15 171.929 1718.02 179.935C1710.31 190.009 1702.49 200.002 1694.77 210.077C1688.15 218.731 1681.68 227.504 1675 236.117C1671.35 240.823 1667.65 245.529 1663.53 249.813C1659.51 254.006 1654.49 256.734 1648.47 257.088C1646.09 257.228 1643.7 257.514 1641.31 257.514C1523.42 257.537 1405.52 257.487 1287.63 257.555C1238.08 257.582 468.163 257.846 418.606 258V237.143C419.06 237.143 1139.86 237.156 1140.31 237.156C1247.77 237.006 1355.22 236.825 1462.68 236.716C1525.4 236.653 1588.13 236.621 1650.85 236.798C1659.7 236.825 1666.31 233.013 1671.92 226.954C1675.8 222.77 1679.16 218.101 1682.66 213.576C1690.24 203.778 1697.78 193.944 1705.31 184.11C1711.63 175.864 1717.87 167.568 1724.2 159.341C1732.53 148.522 1740.95 137.766 1749.27 126.943C1756.05 118.125 1762.71 109.217 1769.5 100.394C1777.82 89.571 1786.23 78.811 1794.57 67.9966C1801 59.6555 1807.38 51.269 1813.77 42.8961C1820.06 34.6412 1826.36 26.3863 1832.64 18.1178C1835.68 14.1061 1837.44 13.2257 1840.95 14.5463C1842.64 15.1816 1844.27 16.1754 1845.71 17.2828C1850.54 20.9859 1855.27 24.8161 1860.05 28.5918C1866.1 33.3841 1872.16 38.1673 1878.21 42.9687C1884.32 47.82 1890.39 52.7212 1896.51 57.5498C1903.91 63.3813 1911.38 69.1221 1918.77 74.9717C1926.4 81.012 1933.94 87.1658 1941.57 93.206C1950.58 100.345 1959.66 107.415 1968.71 114.517C1974.31 118.915 1979.93 123.303 1985.51 127.728C1990.86 131.975 1996.15 136.309 2001.52 140.534C2003.95 142.44 2006.5 144.179 2009 145.994V150.981V150.995Z" fill="#241815"/>
<path opacity="0.08" d="M1116.15 206.076C1091.97 206.076 1026.99 206.135 1122.19 206.135C1224.96 206.135 1346.76 206.193 1449.52 206.117C1518.96 206.067 1588.4 205.891 1657.84 205.602C1665.06 205.57 1671.05 202.194 1675.53 196.347C1679.82 190.763 1684.25 185.291 1688.63 179.774C1692.87 174.429 1697.13 169.097 1701.37 163.752C1706.2 157.653 1711.03 151.545 1715.86 145.445C1720.7 139.346 1725.54 133.247 1730.39 127.157C1734.73 121.699 1739.07 116.254 1743.42 110.801C1747.67 105.464 1751.94 100.137 1756.18 94.7965C1761.12 88.589 1766.04 82.3679 1770.98 76.1559C1775.68 70.2328 1780.42 64.3277 1785.11 58.4001C1789.44 52.942 1793.72 47.4433 1798.05 41.9942C1802.3 36.6534 1806.62 31.3624 1810.87 26.0217C1815.25 20.5139 1819.59 14.97 1823.95 9.43965C1825.51 7.46227 1827.03 5.45781 1828.59 3.48043C1832.11 -0.970933 1836.37 -1.09734 1841.2 2.78519C1848.08 8.31553 1855.12 13.6517 1862.05 19.1234C1869.69 25.1503 1877.25 31.2631 1884.9 37.281C1891.54 42.5088 1898.28 47.6284 1904.93 52.8472C1911.07 57.6552 1917.15 62.5445 1923.27 67.3706C1929.33 72.147 1935.42 76.8918 1941.49 81.6546C1947.57 86.422 1953.63 91.1984 1959.7 95.9658C1965.13 100.228 1970.57 104.467 1975.99 108.733C1982.11 113.555 1988.22 118.403 1994.34 123.234C1998.07 126.177 2001.85 129.071 2005.52 132.087C2006.81 133.143 2007.84 134.493 2009 135.708V138.863C2006.94 137.31 2004.85 135.784 2002.81 134.195C1992.87 126.426 1982.94 118.647 1973.02 110.855C1964.97 104.525 1956.95 98.1463 1948.9 91.8169C1938.98 84.0203 1929.04 76.2462 1919.1 68.4721C1913.61 64.1742 1908.09 59.9215 1902.61 55.6056C1896.54 50.8292 1890.52 45.9851 1884.46 41.1996C1878.4 36.4187 1872.3 31.6874 1866.24 26.9246C1860.86 22.708 1855.51 18.4688 1850.14 14.2522C1846.64 11.5028 1843.14 8.74893 1839.6 6.04922C1838.1 4.90703 1836.39 4.86188 1835.17 6.31557C1830.55 11.8324 1826.02 17.435 1821.5 23.0375C1816.8 28.8658 1812.14 34.7302 1807.46 40.5766C1802.59 46.6577 1797.7 52.7253 1792.85 58.8155C1787.86 65.0772 1782.91 71.366 1777.93 77.6322C1773.08 83.7268 1768.21 89.8034 1763.36 95.8981C1759.07 101.293 1754.81 106.71 1750.53 112.119C1746.35 117.41 1742.14 122.683 1737.97 127.988C1732.88 134.452 1727.83 140.949 1722.76 147.423C1717.55 154.073 1712.32 160.705 1707.12 167.364C1702.83 172.853 1698.57 178.37 1694.3 183.869C1688.3 191.593 1682.3 199.313 1676.31 207.038C1673.58 210.55 1671.03 214.211 1668.1 217.552C1662.89 223.498 1655.64 225.529 1648.24 225.737C1629.4 226.265 1610.55 226.256 1591.69 226.297C1509.19 226.482 1426.69 226.662 1344.19 226.748C1276.61 226.82 1169.82 226.762 1102.24 226.766C1073.92 226.766 337.292 226.825 426.149 226.825C-170.846 226.825 -96.0626 206.053 374.968 206.053L1116.15 206.076Z" fill="white"/>
</svg>
