<svg width="304" height="22" viewBox="0 0 304 22" fill="none" xmlns="http://www.w3.org/2000/svg">
<path d="M160.243 12.9214L158.604 10.0141H147.008L146.377 12.9214H144.477L146.467 3.85882H162.244C163.73 3.85882 164.319 4.57181 164.009 5.9978L163.607 7.85366C163.294 9.29462 162.38 10.0149 160.863 10.0145L162.529 12.9217L160.243 12.9214ZM147.398 8.21631H160.907C161.133 8.2271 161.354 8.15342 161.525 8.01062C161.696 7.86781 161.803 7.66688 161.824 7.44966L162.052 6.40117C162.162 5.91487 161.94 5.6715 161.385 5.67107H147.95L147.398 8.21631ZM111.82 12.9214L113.39 5.6855H103.987L104.388 3.84375H125.414L125.021 5.65632H115.649L114.073 12.9214H111.82ZM82.871 12.9214L83.2835 11.1235H98.6625C98.8727 11.1447 99.0834 11.0874 99.2514 10.9634C99.4193 10.8394 99.5318 10.6581 99.5657 10.4566L99.662 10.0141C99.7758 9.53595 99.5701 9.29676 99.0447 9.29654H85.9319C84.416 9.29654 83.8051 8.61828 84.0991 7.26177L84.3601 6.05969C84.678 4.59266 85.5807 3.85903 87.068 3.85882L102.871 3.84375L102.477 5.65664H87.0759C86.8576 5.64037 86.6413 5.70699 86.473 5.84231C86.3048 5.97764 86.1979 6.17101 86.175 6.38129L86.0963 6.74393C85.9893 7.23686 86.1785 7.48343 86.6638 7.48365H99.7813C101.313 7.48365 101.924 8.1991 101.613 9.63001L101.381 10.6955C101.059 12.1794 100.132 12.9214 98.6 12.9214H82.871ZM36.2055 12.9214L34.5669 10.0141H22.9698L22.3388 12.9214H20.4393L22.4265 3.85882H38.2033C39.6899 3.85882 40.2786 4.57181 39.9693 5.9978L39.5668 7.85366C39.2542 9.29462 38.3396 10.0149 36.8228 10.0145L38.4896 12.9217L36.2055 12.9214ZM23.3597 8.21631H36.8693C37.095 8.2271 37.3163 8.15342 37.4872 8.01062C37.658 7.86781 37.7653 7.66688 37.7865 7.44966L38.0137 6.40117C38.1244 5.91487 37.9022 5.6715 37.3472 5.67107H23.9122L23.3597 8.21631ZM2.87252 3.86587H18.6719C20.1634 3.86587 20.7524 4.58849 20.4389 6.03372L20.2095 7.09183C20.1536 7.43312 19.9808 7.74647 19.7188 7.98177C19.4567 8.21707 19.1205 8.36073 18.7639 8.38977C19.5195 8.50585 19.8194 8.91199 19.6635 9.6082L19.4168 10.7465C19.0938 12.187 18.1762 12.9072 16.6641 12.9069L0.907227 12.9214L2.87252 3.86587ZM3.15978 11.1223H16.6757C16.8956 11.1371 17.1129 11.0702 17.2833 10.9353C17.4537 10.8004 17.5643 10.6077 17.5923 10.3967L17.6693 10.0411C17.7865 9.54814 17.602 9.30157 17.1161 9.30135H3.5543L3.15978 11.1223ZM3.9704 7.49102H17.4648C17.6898 7.50244 17.9109 7.43017 18.0825 7.28907C18.2541 7.14797 18.3632 6.94876 18.3873 6.73239L18.464 6.37969C18.5778 5.903 18.3696 5.66477 17.8394 5.66498H4.36691L3.9704 7.49102ZM187.679 12.921L189.192 6.01897L177.611 10.0356L167.426 6.00422L165.924 12.921H164.018L165.983 3.86555H167.89L178.052 7.85431L189.635 3.86555H191.544L189.579 12.921H187.679ZM63.3397 12.921L65.2863 3.84375H67.1719L79.9277 10.7753L81.4192 3.86555H83.312L81.3527 12.8999H79.4525L66.7336 5.93913L65.2173 12.921H63.3397ZM125.435 10.7375L126.455 6.03917C126.769 4.58902 127.67 3.86395 129.157 3.86395H142.666C144.194 3.86395 144.796 4.60591 144.473 6.08983L143.455 10.7808C143.149 12.1916 142.257 12.897 140.781 12.897L127.214 12.9182C125.712 12.9199 125.119 12.193 125.435 10.7375ZM128.279 6.38546L127.416 10.3694C127.309 10.861 127.506 11.1069 128.007 11.1069H140.766C140.982 11.1233 141.196 11.0576 141.362 10.9239C141.529 10.7901 141.634 10.5989 141.657 10.3909L142.515 6.43516C142.626 5.92919 142.43 5.6762 141.929 5.6762H129.184C128.967 5.65725 128.751 5.72098 128.582 5.8538C128.413 5.98662 128.304 6.17799 128.279 6.38706V6.38546ZM56.126 12.9066L56.757 9.99233H42.5131L41.8822 12.9066H40.0122L41.4883 6.09175C41.8142 4.59308 42.7305 3.84375 44.2373 3.84375H57.7244C59.2365 3.84375 59.8282 4.60014 59.4994 6.11291L58.0263 12.9066H56.126ZM43.2935 6.39764L42.9066 8.17911H57.1532L57.5434 6.3768C57.6475 5.89691 57.4491 5.65686 56.9483 5.65664H44.2051C43.983 5.64139 43.7636 5.71032 43.5933 5.8488C43.423 5.98728 43.3154 6.1844 43.2932 6.39828L43.2935 6.39764ZM59.8859 12.8925L61.8472 3.84375H63.7621L61.7988 12.8922L59.8859 12.8925Z" fill="white"/>
<path d="M204.856 3.84C204.589 3.84 204.347 3.872 204.128 3.936C203.909 3.99467 203.712 4.064 203.536 4.144L203.24 3.544C203.459 3.43733 203.709 3.35467 203.992 3.296C204.275 3.23733 204.565 3.208 204.864 3.208C205.323 3.208 205.72 3.28 206.056 3.424C206.397 3.56267 206.68 3.76 206.904 4.016C207.128 4.272 207.293 4.57333 207.4 4.92C207.512 5.26133 207.568 5.63733 207.568 6.048C207.568 6.672 207.467 7.21067 207.264 7.664C207.061 8.11733 206.755 8.46667 206.344 8.712C205.939 8.95733 205.427 9.08 204.808 9.08C204.477 9.08 204.197 9.06133 203.968 9.024C203.739 8.98667 203.512 8.928 203.288 8.848V8.224C203.512 8.28267 203.739 8.336 203.968 8.384C204.197 8.42667 204.44 8.448 204.696 8.448C205.043 8.448 205.344 8.40267 205.6 8.312C205.861 8.216 206.08 8.08 206.256 7.904C206.432 7.72267 206.565 7.50133 206.656 7.24C206.747 6.97333 206.797 6.66933 206.808 6.328H204.032V5.696H206.8C206.773 5.40267 206.709 5.14133 206.608 4.912C206.507 4.68267 206.371 4.488 206.2 4.328C206.035 4.168 205.837 4.048 205.608 3.968C205.384 3.88267 205.133 3.84 204.856 3.84ZM212.847 9H211.983L209.399 6.104V9H208.679V3.288H209.399V6.056L211.919 3.288H212.735L210.255 6.064L212.847 9ZM215.756 3.84C215.452 3.84 215.177 3.89333 214.932 4C214.686 4.10133 214.478 4.25333 214.308 4.456C214.137 4.65333 214.006 4.896 213.916 5.184C213.825 5.46667 213.78 5.78667 213.78 6.144C213.78 6.61333 213.852 7.02133 213.996 7.368C214.145 7.71467 214.364 7.98133 214.652 8.168C214.945 8.35467 215.31 8.448 215.748 8.448C215.998 8.448 216.236 8.42667 216.46 8.384C216.684 8.34133 216.902 8.288 217.116 8.224V8.848C216.902 8.928 216.681 8.98667 216.452 9.024C216.228 9.06133 215.958 9.08 215.644 9.08C215.062 9.08 214.577 8.96 214.188 8.72C213.798 8.48 213.505 8.13867 213.308 7.696C213.116 7.25333 213.02 6.73333 213.02 6.136C213.02 5.704 213.078 5.30933 213.196 4.952C213.318 4.59467 213.494 4.28533 213.724 4.024C213.958 3.76267 214.246 3.56267 214.588 3.424C214.929 3.28 215.321 3.208 215.764 3.208C216.057 3.208 216.34 3.23733 216.612 3.296C216.884 3.35467 217.126 3.43733 217.34 3.544L217.052 4.152C216.876 4.072 216.678 4 216.46 3.936C216.246 3.872 216.012 3.84 215.756 3.84ZM222.37 9H221.506L218.922 6.104V9H218.202V3.288H218.922V6.056L221.442 3.288H222.258L219.778 6.064L222.37 9ZM227.1 9H226.38V3.92H224.572C224.534 4.21333 224.494 4.52267 224.452 4.848C224.409 5.168 224.364 5.48533 224.316 5.8C224.273 6.11467 224.23 6.41067 224.188 6.688C224.145 6.96533 224.102 7.208 224.06 7.416C223.99 7.77333 223.905 8.07733 223.804 8.328C223.702 8.57867 223.566 8.768 223.396 8.896C223.23 9.024 223.012 9.088 222.74 9.088C222.649 9.088 222.556 9.07733 222.46 9.056C222.369 9.04 222.289 9.01867 222.22 8.992V8.392C222.278 8.41867 222.345 8.44267 222.42 8.464C222.494 8.48 222.574 8.488 222.66 8.488C222.82 8.488 222.945 8.424 223.036 8.296C223.132 8.16267 223.206 8 223.26 7.808C223.313 7.61067 223.358 7.416 223.396 7.224C223.428 7.06933 223.465 6.864 223.508 6.608C223.55 6.34667 223.596 6.04267 223.644 5.696C223.697 5.34933 223.75 4.97333 223.804 4.568C223.862 4.15733 223.918 3.73067 223.972 3.288H227.1V9ZM235.636 6.136C235.636 6.57867 235.582 6.98133 235.476 7.344C235.369 7.70667 235.209 8.01867 234.996 8.28C234.782 8.536 234.518 8.73333 234.204 8.872C233.894 9.01067 233.532 9.08 233.116 9.08C232.572 9.08 232.113 8.968 231.74 8.744C231.372 8.52 231.089 8.20267 230.892 7.792C230.694 7.38133 230.585 6.896 230.564 6.336H229.212V9H228.492V3.288H229.212V5.704H230.58C230.617 5.19733 230.734 4.75733 230.932 4.384C231.129 4.00533 231.409 3.71467 231.772 3.512C232.134 3.304 232.577 3.2 233.1 3.2C233.649 3.2 234.11 3.32267 234.484 3.568C234.862 3.808 235.148 4.14933 235.34 4.592C235.537 5.02933 235.636 5.544 235.636 6.136ZM231.316 6.136C231.316 6.616 231.377 7.02933 231.5 7.376C231.628 7.72267 231.822 7.98933 232.084 8.176C232.35 8.36267 232.686 8.456 233.092 8.456C233.508 8.456 233.846 8.36267 234.108 8.176C234.374 7.98933 234.569 7.72267 234.692 7.376C234.82 7.02933 234.884 6.616 234.884 6.136C234.884 5.656 234.822 5.24533 234.7 4.904C234.577 4.55733 234.385 4.29333 234.124 4.112C233.862 3.92533 233.524 3.832 233.108 3.832C232.697 3.832 232.358 3.92533 232.092 4.112C231.825 4.29333 231.628 4.55733 231.5 4.904C231.377 5.24533 231.316 5.656 231.316 6.136ZM240.044 4.624C240.044 5.01333 239.921 5.32267 239.676 5.552C239.43 5.776 239.102 5.92 238.692 5.984V6.016C239.172 6.08 239.537 6.22933 239.788 6.464C240.038 6.69867 240.164 7.00533 240.164 7.384C240.164 7.72 240.078 8.016 239.908 8.272C239.737 8.52267 239.481 8.72 239.14 8.864C238.798 9.008 238.372 9.08 237.86 9.08C237.55 9.08 237.254 9.056 236.972 9.008C236.694 8.96533 236.436 8.88533 236.196 8.768V8.112C236.361 8.192 236.537 8.26133 236.724 8.32C236.916 8.37333 237.108 8.416 237.3 8.448C237.492 8.47467 237.676 8.488 237.852 8.488C238.364 8.488 238.75 8.392 239.012 8.2C239.278 8.008 239.412 7.736 239.412 7.384C239.412 7.02133 239.257 6.75733 238.948 6.592C238.638 6.42667 238.206 6.344 237.652 6.344H236.836V5.744H237.612C237.99 5.744 238.302 5.70133 238.548 5.616C238.798 5.53067 238.985 5.41067 239.108 5.256C239.236 5.096 239.3 4.90933 239.3 4.696C239.3 4.408 239.193 4.18667 238.98 4.032C238.766 3.87733 238.489 3.8 238.148 3.8C237.79 3.8 237.492 3.84533 237.252 3.936C237.017 4.02667 236.788 4.144 236.564 4.288L236.22 3.8C236.369 3.688 236.54 3.58933 236.732 3.504C236.929 3.41333 237.148 3.34133 237.388 3.288C237.628 3.23467 237.884 3.208 238.156 3.208C238.566 3.208 238.91 3.26933 239.188 3.392C239.47 3.51467 239.684 3.68267 239.828 3.896C239.972 4.104 240.044 4.34667 240.044 4.624ZM241.219 3.288H241.891V6.424C241.891 6.55733 241.888 6.704 241.883 6.864C241.883 7.01867 241.88 7.17333 241.875 7.328C241.869 7.48267 241.861 7.62133 241.851 7.744C241.845 7.86133 241.84 7.952 241.835 8.016H241.867L245.011 3.288H245.811V9H245.139V5.896C245.139 5.752 245.141 5.59733 245.147 5.432C245.152 5.26133 245.157 5.09867 245.163 4.944C245.173 4.784 245.181 4.64267 245.187 4.52C245.192 4.39733 245.197 4.30667 245.203 4.248H245.171L242.019 9H241.219V3.288ZM248.823 3.288C249.298 3.288 249.695 3.33333 250.015 3.424C250.341 3.51467 250.583 3.664 250.743 3.872C250.909 4.08 250.991 4.35733 250.991 4.704C250.991 4.928 250.949 5.128 250.863 5.304C250.783 5.47467 250.661 5.61867 250.495 5.736C250.335 5.848 250.138 5.92533 249.903 5.968V6.008C250.143 6.04533 250.359 6.11467 250.551 6.216C250.749 6.31733 250.903 6.46133 251.015 6.648C251.127 6.83467 251.183 7.07733 251.183 7.376C251.183 7.72267 251.103 8.01867 250.943 8.264C250.783 8.504 250.554 8.688 250.255 8.816C249.962 8.93867 249.61 9 249.199 9H247.191V3.288H248.823ZM248.967 5.72C249.458 5.72 249.794 5.64267 249.975 5.488C250.157 5.328 250.247 5.09333 250.247 4.784C250.247 4.46933 250.135 4.24533 249.911 4.112C249.693 3.97333 249.341 3.904 248.855 3.904H247.911V5.72H248.967ZM247.911 6.32V8.392H249.063C249.57 8.392 249.922 8.29333 250.119 8.096C250.317 7.89867 250.415 7.64 250.415 7.32C250.415 7.11733 250.37 6.94133 250.279 6.792C250.194 6.64267 250.047 6.528 249.839 6.448C249.637 6.36267 249.359 6.32 249.007 6.32H247.911ZM256.602 9H255.882V6.336H252.954V9H252.234V3.288H252.954V5.704H255.882V3.288H256.602V9ZM258.004 9V3.288H258.724V5.704H259.604C260.137 5.704 260.556 5.776 260.86 5.92C261.169 6.064 261.388 6.25867 261.516 6.504C261.649 6.74933 261.716 7.024 261.716 7.328C261.716 7.664 261.644 7.95733 261.5 8.208C261.361 8.45867 261.143 8.65333 260.844 8.792C260.545 8.93067 260.161 9 259.692 9H258.004ZM259.628 8.392C260.087 8.392 260.425 8.304 260.644 8.128C260.863 7.952 260.972 7.68533 260.972 7.328C260.972 7.08267 260.919 6.888 260.812 6.744C260.711 6.6 260.553 6.496 260.34 6.432C260.127 6.368 259.855 6.336 259.524 6.336H258.724V8.392H259.628ZM262.596 9V3.288H263.316V9H262.596ZM268.607 1.512C268.586 1.77867 268.519 2.00267 268.407 2.184C268.301 2.36533 268.141 2.50133 267.927 2.592C267.714 2.68267 267.437 2.728 267.095 2.728C266.749 2.728 266.469 2.68267 266.255 2.592C266.047 2.50133 265.895 2.368 265.799 2.192C265.703 2.01067 265.645 1.784 265.623 1.512H266.279C266.306 1.8 266.381 1.99467 266.503 2.096C266.631 2.192 266.834 2.24 267.111 2.24C267.357 2.24 267.549 2.18933 267.687 2.088C267.831 1.98133 267.917 1.78933 267.943 1.512H268.607ZM264.719 3.288H265.391V6.424C265.391 6.55733 265.389 6.704 265.383 6.864C265.383 7.01867 265.381 7.17333 265.375 7.328C265.37 7.48267 265.362 7.62133 265.351 7.744C265.346 7.86133 265.341 7.952 265.335 8.016H265.367L268.511 3.288H269.311V9H268.639V5.896C268.639 5.752 268.642 5.59733 268.647 5.432C268.653 5.26133 268.658 5.09867 268.663 4.944C268.674 4.784 268.682 4.64267 268.687 4.52C268.693 4.39733 268.698 4.30667 268.703 4.248H268.671L265.519 9H264.719V3.288ZM207.624 14.288V19.36H208.352V21.504H207.664V20H203.736V21.504H203.048V19.36H203.488C203.68 19.0293 203.861 18.6587 204.032 18.248C204.208 17.8373 204.363 17.408 204.496 16.96C204.629 16.5067 204.739 16.0533 204.824 15.6C204.909 15.1467 204.963 14.7093 204.984 14.288H207.624ZM205.616 14.936C205.595 15.2453 205.541 15.5947 205.456 15.984C205.376 16.3733 205.272 16.7733 205.144 17.184C205.021 17.5893 204.883 17.9813 204.728 18.36C204.579 18.7387 204.419 19.072 204.248 19.36H206.912V14.936H205.616ZM209.155 14.288H209.827V17.424C209.827 17.5573 209.825 17.704 209.819 17.864C209.819 18.0187 209.817 18.1733 209.811 18.328C209.806 18.4827 209.798 18.6213 209.787 18.744C209.782 18.8613 209.777 18.952 209.771 19.016H209.803L212.947 14.288H213.747V20H213.075V16.896C213.075 16.752 213.078 16.5973 213.083 16.432C213.089 16.2613 213.094 16.0987 213.099 15.944C213.11 15.784 213.118 15.6427 213.123 15.52C213.129 15.3973 213.134 15.3067 213.139 15.248H213.107L209.955 20H209.155V14.288ZM217.576 14.84C217.272 14.84 216.997 14.8933 216.752 15C216.507 15.1013 216.299 15.2533 216.128 15.456C215.957 15.6533 215.827 15.896 215.736 16.184C215.645 16.4667 215.6 16.7867 215.6 17.144C215.6 17.6133 215.672 18.0213 215.816 18.368C215.965 18.7147 216.184 18.9813 216.472 19.168C216.765 19.3547 217.131 19.448 217.568 19.448C217.819 19.448 218.056 19.4267 218.28 19.384C218.504 19.3413 218.723 19.288 218.936 19.224V19.848C218.723 19.928 218.501 19.9867 218.272 20.024C218.048 20.0613 217.779 20.08 217.464 20.08C216.883 20.08 216.397 19.96 216.008 19.72C215.619 19.48 215.325 19.1387 215.128 18.696C214.936 18.2533 214.84 17.7333 214.84 17.136C214.84 16.704 214.899 16.3093 215.016 15.952C215.139 15.5947 215.315 15.2853 215.544 15.024C215.779 14.7627 216.067 14.5627 216.408 14.424C216.749 14.28 217.141 14.208 217.584 14.208C217.877 14.208 218.16 14.2373 218.432 14.296C218.704 14.3547 218.947 14.4373 219.16 14.544L218.872 15.152C218.696 15.072 218.499 15 218.28 14.936C218.067 14.872 217.832 14.84 217.576 14.84ZM221.831 20H221.111V14.92H219.327V14.288H223.607V14.92H221.831V20ZM225.82 14.288C226.567 14.288 227.111 14.4347 227.452 14.728C227.793 15.0213 227.964 15.4347 227.964 15.968C227.964 16.2027 227.924 16.4293 227.844 16.648C227.769 16.8613 227.644 17.0533 227.468 17.224C227.292 17.3947 227.057 17.5307 226.764 17.632C226.471 17.728 226.111 17.776 225.684 17.776H225.028V20H224.308V14.288H225.82ZM225.756 14.904H225.028V17.16H225.604C225.967 17.16 226.268 17.1227 226.508 17.048C226.748 16.968 226.927 16.8427 227.044 16.672C227.161 16.5013 227.22 16.2773 227.22 16C227.22 15.632 227.103 15.3573 226.868 15.176C226.633 14.9947 226.263 14.904 225.756 14.904ZM229 14.288H229.672V17.424C229.672 17.5573 229.669 17.704 229.664 17.864C229.664 18.0187 229.661 18.1733 229.656 18.328C229.65 18.4827 229.642 18.6213 229.632 18.744C229.626 18.8613 229.621 18.952 229.616 19.016H229.648L232.792 14.288H233.592V20H232.92V16.896C232.92 16.752 232.922 16.5973 232.928 16.432C232.933 16.2613 232.938 16.0987 232.944 15.944C232.954 15.784 232.962 15.6427 232.968 15.52C232.973 15.3973 232.978 15.3067 232.984 15.248H232.952L229.8 20H229V14.288ZM234.972 20V14.288H238.364V14.92H235.692V16.704H236.54C237.111 16.704 237.554 16.776 237.868 16.92C238.183 17.0587 238.402 17.2507 238.524 17.496C238.647 17.736 238.708 18.0133 238.708 18.328C238.708 18.6747 238.639 18.9733 238.5 19.224C238.367 19.4747 238.148 19.6667 237.844 19.8C237.54 19.9333 237.14 20 236.644 20H234.972ZM236.572 19.384C237.084 19.384 237.444 19.2987 237.652 19.128C237.86 18.952 237.964 18.6853 237.964 18.328C237.964 18.0827 237.914 17.888 237.812 17.744C237.716 17.5947 237.556 17.488 237.332 17.424C237.114 17.36 236.82 17.328 236.452 17.328H235.692V19.384H236.572ZM239.734 20V14.288H240.454V16.704H241.526C242.059 16.704 242.483 16.776 242.798 16.92C243.113 17.064 243.339 17.2587 243.478 17.504C243.617 17.7493 243.686 18.024 243.686 18.328C243.686 18.664 243.609 18.9573 243.454 19.208C243.305 19.4587 243.078 19.6533 242.774 19.792C242.47 19.9307 242.083 20 241.614 20H239.734ZM241.542 19.384C242.006 19.384 242.355 19.2987 242.59 19.128C242.825 18.952 242.942 18.6853 242.942 18.328C242.942 18.0827 242.883 17.888 242.766 17.744C242.654 17.5947 242.486 17.488 242.262 17.424C242.043 17.36 241.769 17.328 241.438 17.328H240.454V19.384H241.542ZM251.851 17.136C251.851 17.5787 251.798 17.9813 251.691 18.344C251.584 18.7067 251.424 19.0187 251.211 19.28C250.998 19.536 250.734 19.7333 250.419 19.872C250.11 20.0107 249.747 20.08 249.331 20.08C248.787 20.08 248.328 19.968 247.955 19.744C247.587 19.52 247.304 19.2027 247.107 18.792C246.91 18.3813 246.8 17.896 246.779 17.336H245.427V20H244.707V14.288H245.427V16.704H246.795C246.832 16.1973 246.95 15.7573 247.147 15.384C247.344 15.0053 247.624 14.7147 247.987 14.512C248.35 14.304 248.792 14.2 249.315 14.2C249.864 14.2 250.326 14.3227 250.699 14.568C251.078 14.808 251.363 15.1493 251.555 15.592C251.752 16.0293 251.851 16.544 251.851 17.136ZM247.531 17.136C247.531 17.616 247.592 18.0293 247.715 18.376C247.843 18.7227 248.038 18.9893 248.299 19.176C248.566 19.3627 248.902 19.456 249.307 19.456C249.723 19.456 250.062 19.3627 250.323 19.176C250.59 18.9893 250.784 18.7227 250.907 18.376C251.035 18.0293 251.099 17.616 251.099 17.136C251.099 16.656 251.038 16.2453 250.915 15.904C250.792 15.5573 250.6 15.2933 250.339 15.112C250.078 14.9253 249.739 14.832 249.323 14.832C248.912 14.832 248.574 14.9253 248.307 15.112C248.04 15.2933 247.843 15.5573 247.715 15.904C247.592 16.2453 247.531 16.656 247.531 17.136ZM254.527 20H253.807V14.92H252.023V14.288H256.303V14.92H254.527V20ZM260.196 20H257.004V14.288H260.196V14.92H257.724V16.704H260.052V17.328H257.724V19.368H260.196V20ZM262.801 14.288C263.548 14.288 264.092 14.4347 264.433 14.728C264.775 15.0213 264.945 15.4347 264.945 15.968C264.945 16.2027 264.905 16.4293 264.825 16.648C264.751 16.8613 264.625 17.0533 264.449 17.224C264.273 17.3947 264.039 17.5307 263.745 17.632C263.452 17.728 263.092 17.776 262.665 17.776H262.009V20H261.289V14.288H262.801ZM262.737 14.904H262.009V17.16H262.585C262.948 17.16 263.249 17.1227 263.489 17.048C263.729 16.968 263.908 16.8427 264.025 16.672C264.143 16.5013 264.201 16.2773 264.201 16C264.201 15.632 264.084 15.3573 263.849 15.176C263.615 14.9947 263.244 14.904 262.737 14.904ZM269.523 14.288C269.998 14.288 270.395 14.3333 270.715 14.424C271.041 14.5147 271.283 14.664 271.443 14.872C271.609 15.08 271.691 15.3573 271.691 15.704C271.691 15.928 271.649 16.128 271.563 16.304C271.483 16.4747 271.361 16.6187 271.195 16.736C271.035 16.848 270.838 16.9253 270.603 16.968V17.008C270.843 17.0453 271.059 17.1147 271.251 17.216C271.449 17.3173 271.603 17.4613 271.715 17.648C271.827 17.8347 271.883 18.0773 271.883 18.376C271.883 18.7227 271.803 19.0187 271.643 19.264C271.483 19.504 271.254 19.688 270.955 19.816C270.662 19.9387 270.31 20 269.899 20H267.891V14.288H269.523ZM269.667 16.72C270.158 16.72 270.494 16.6427 270.675 16.488C270.857 16.328 270.947 16.0933 270.947 15.784C270.947 15.4693 270.835 15.2453 270.611 15.112C270.393 14.9733 270.041 14.904 269.555 14.904H268.611V16.72H269.667ZM268.611 17.32V19.392H269.763C270.27 19.392 270.622 19.2933 270.819 19.096C271.017 18.8987 271.115 18.64 271.115 18.32C271.115 18.1173 271.07 17.9413 270.979 17.792C270.894 17.6427 270.747 17.528 270.539 17.448C270.337 17.3627 270.059 17.32 269.707 17.32H268.611ZM277.301 14.84C276.997 14.84 276.722 14.8933 276.477 15C276.231 15.1013 276.023 15.2533 275.853 15.456C275.682 15.6533 275.551 15.896 275.461 16.184C275.37 16.4667 275.325 16.7867 275.325 17.144C275.325 17.6133 275.397 18.0213 275.541 18.368C275.69 18.7147 275.909 18.9813 276.197 19.168C276.49 19.3547 276.855 19.448 277.293 19.448C277.543 19.448 277.781 19.4267 278.005 19.384C278.229 19.3413 278.447 19.288 278.661 19.224V19.848C278.447 19.928 278.226 19.9867 277.997 20.024C277.773 20.0613 277.503 20.08 277.189 20.08C276.607 20.08 276.122 19.96 275.733 19.72C275.343 19.48 275.05 19.1387 274.853 18.696C274.661 18.2533 274.565 17.7333 274.565 17.136C274.565 16.704 274.623 16.3093 274.741 15.952C274.863 15.5947 275.039 15.2853 275.269 15.024C275.503 14.7627 275.791 14.5627 276.133 14.424C276.474 14.28 276.866 14.208 277.309 14.208C277.602 14.208 277.885 14.2373 278.157 14.296C278.429 14.3547 278.671 14.4373 278.885 14.544L278.597 15.152C278.421 15.072 278.223 15 278.005 14.936C277.791 14.872 277.557 14.84 277.301 14.84ZM284.115 20H283.395V17.336H280.467V20H279.747V14.288H280.467V16.704H283.395V14.288H284.115V20ZM288.741 14.288V14.928H286.237V20H285.517V14.288H288.741Z" fill="white"/>
</svg>
