<svg width="25" height="25" viewBox="0 0 25 25" fill="none" xmlns="http://www.w3.org/2000/svg">
<path fill-rule="evenodd" clip-rule="evenodd" d="M12.0779 4.49053C7.52261 4.58869 3.90939 8.36106 4.00755 12.9163C4.10571 17.4716 7.87808 21.0849 12.4334 20.9867C16.9887 20.8885 20.6019 17.1162 20.5037 12.5609C20.4056 8.00559 16.6332 4.39237 12.0779 4.49053ZM2.5079 12.9487C2.39189 7.56514 6.66206 3.10689 12.0456 2.99088C17.4291 2.87487 21.8874 7.14504 22.0034 12.5286C22.1194 17.9121 17.8492 22.3703 12.4657 22.4864C7.08216 22.6024 2.62391 18.3322 2.5079 12.9487Z" fill="white"/>
<path fill-rule="evenodd" clip-rule="evenodd" d="M12.1589 8.23978C9.67415 8.29332 7.7033 10.351 7.75684 12.8357C7.81038 15.3204 9.86804 17.2912 12.3527 17.2377C14.8374 17.1841 16.8083 15.1265 16.7548 12.6418C16.7012 10.1571 14.6436 8.18624 12.1589 8.23978ZM6.25719 12.868C6.1858 9.55505 8.8136 6.81151 12.1265 6.74012C15.4395 6.66874 18.183 9.29653 18.2544 12.6095C18.3258 15.9224 15.698 18.666 12.3851 18.7373C9.07212 18.8087 6.32858 16.1809 6.25719 12.868Z" fill="white"/>
<path fill-rule="evenodd" clip-rule="evenodd" d="M12.0457 2.99092C12.4598 2.982 12.8028 3.31047 12.8117 3.72459L12.8925 7.47372C12.9014 7.88784 12.5729 8.23078 12.1588 8.2397C11.7447 8.24863 11.4018 7.92015 11.3928 7.50604L11.3121 3.75691C11.3031 3.34279 11.6316 2.99985 12.0457 2.99092Z" fill="white"/>
<path fill-rule="evenodd" clip-rule="evenodd" d="M5.21263 5.99296C5.49915 5.69383 5.97391 5.6836 6.27305 5.97011L8.98271 8.56546C9.28185 8.85198 9.29208 9.32674 9.00556 9.62588C8.71905 9.92501 8.24428 9.93524 7.94515 9.64873L5.23548 7.05338C4.93635 6.76686 4.92612 6.2921 5.21263 5.99296Z" fill="white"/>
<path fill-rule="evenodd" clip-rule="evenodd" d="M2.50835 12.9488C2.49942 12.5347 2.8279 12.1917 3.24201 12.1828L6.99114 12.102C7.40526 12.0931 7.7482 12.4216 7.75713 12.8357C7.76605 13.2498 7.43758 13.5928 7.02346 13.6017L3.27433 13.6825C2.86021 13.6914 2.51727 13.3629 2.50835 12.9488Z" fill="white"/>
<path fill-rule="evenodd" clip-rule="evenodd" d="M9.14333 15.9886C9.44246 16.2752 9.4527 16.7499 9.16618 17.0491L6.57083 19.7587C6.28431 20.0579 5.80955 20.0681 5.51041 19.7816C5.21128 19.4951 5.20105 19.0203 5.48756 18.7212L8.08292 16.0115C8.36943 15.7124 8.84419 15.7021 9.14333 15.9886Z" fill="white"/>
<path fill-rule="evenodd" clip-rule="evenodd" d="M12.3524 17.2377C12.7665 17.2288 13.1094 17.5573 13.1183 17.9714L13.1991 21.7205C13.2081 22.1347 12.8796 22.4776 12.4655 22.4865C12.0514 22.4955 11.7084 22.167 11.6995 21.7529L11.6187 18.0037C11.6098 17.5896 11.9382 17.2467 12.3524 17.2377Z" fill="white"/>
<path fill-rule="evenodd" clip-rule="evenodd" d="M15.5056 15.8516C15.7921 15.5525 16.2669 15.5422 16.566 15.8288L19.2757 18.4241C19.5748 18.7106 19.585 19.1854 19.2985 19.4845C19.012 19.7837 18.5373 19.7939 18.2381 19.5074L15.5285 16.912C15.2293 16.6255 15.2191 16.1507 15.5056 15.8516Z" fill="white"/>
<path fill-rule="evenodd" clip-rule="evenodd" d="M16.7544 12.6417C16.7455 12.2276 17.074 11.8846 17.4881 11.8757L21.2372 11.7949C21.6514 11.786 21.9943 12.1145 22.0032 12.5286C22.0121 12.9427 21.6837 13.2856 21.2696 13.2946L17.5204 13.3753C17.1063 13.3843 16.7634 13.0558 16.7544 12.6417Z" fill="white"/>
<path fill-rule="evenodd" clip-rule="evenodd" d="M19.0017 5.69567C19.3009 5.98219 19.3111 6.45695 19.0246 6.75608L16.4292 9.46575C16.1427 9.76489 15.6679 9.77512 15.3688 9.4886C15.0697 9.20209 15.0594 8.72732 15.346 8.42819L17.9413 5.71852C18.2278 5.41939 18.7026 5.40915 19.0017 5.69567Z" fill="white"/>
</svg>
