<svg width="24" height="24" viewBox="0 0 24 24" fill="none" xmlns="http://www.w3.org/2000/svg">
<path fill-rule="evenodd" clip-rule="evenodd" d="M12 3.75C7.44365 3.75 3.75 7.44365 3.75 12C3.75 16.5563 7.44365 20.25 12 20.25C16.5563 20.25 20.25 16.5563 20.25 12C20.25 7.44365 16.5563 3.75 12 3.75ZM2.25 12C2.25 6.61522 6.61522 2.25 12 2.25C17.3848 2.25 21.75 6.61522 21.75 12C21.75 17.3848 17.3848 21.75 12 21.75C6.61522 21.75 2.25 17.3848 2.25 12Z" fill="white"/>
<path fill-rule="evenodd" clip-rule="evenodd" d="M16.7584 7.23163C16.9794 7.45222 17.0406 7.78668 16.912 8.07125L14.2777 13.9025C14.2003 14.0736 14.0617 14.2095 13.889 14.2833L8.32029 16.6646C8.03852 16.7851 7.71178 16.722 7.49508 16.5053C7.27839 16.2886 7.21532 15.9619 7.33581 15.6801L9.71706 10.1113C9.79069 9.93917 9.92606 9.80076 10.0966 9.72333L15.9184 7.07958C16.2028 6.95047 16.5373 7.01104 16.7584 7.23163ZM10.9818 10.9688L9.45047 14.5499L13.0309 13.0189L14.725 9.26896L10.9818 10.9688Z" fill="white"/>
</svg>
