<svg width="25" height="24" viewBox="0 0 25 24" fill="none" xmlns="http://www.w3.org/2000/svg">
<path d="M21.3654 10C21.3654 17 12.3654 23 12.3654 23C12.3654 23 3.36536 17 3.36536 10C3.36536 7.61305 4.31357 5.32387 6.0014 3.63604C7.68922 1.94821 9.97841 1 12.3654 1C14.7523 1 17.0415 1.94821 18.7293 3.63604C20.4171 5.32387 21.3654 7.61305 21.3654 10Z" stroke="white" stroke-width="2" stroke-linecap="round" stroke-linejoin="round"/>
<path d="M12.3654 13C14.0222 13 15.3654 11.6569 15.3654 10C15.3654 8.34315 14.0222 7 12.3654 7C10.7085 7 9.36536 8.34315 9.36536 10C9.36536 11.6569 10.7085 13 12.3654 13Z" stroke="white" stroke-width="2" stroke-linecap="round" stroke-linejoin="round"/>
</svg>
