<svg width="24" height="24" viewBox="0 0 24 24" fill="none" xmlns="http://www.w3.org/2000/svg">
<path fill-rule="evenodd" clip-rule="evenodd" d="M6.18557 3.25612C6.32798 3.09336 6.53373 3 6.75 3H17.25C17.4663 3 17.672 3.09336 17.8144 3.25612L23.0644 9.25612C23.3179 9.5458 23.3109 9.98034 23.0483 10.2617L12.5483 21.5117C12.4064 21.6637 12.2079 21.75 12 21.75C11.7921 21.75 11.5936 21.6637 11.4517 21.5117L0.951709 10.2617C0.689071 9.98034 0.682096 9.5458 0.935568 9.25612L6.18557 3.25612ZM7.09033 4.5L2.51077 9.73378L12 19.9008L21.4892 9.73378L16.9097 4.5H7.09033Z" fill="white"/>
<path fill-rule="evenodd" clip-rule="evenodd" d="M11.9996 3C12.2328 3 12.4527 3.10847 12.5947 3.29348L17.1978 9.29348C17.3602 9.50514 17.3979 9.78712 17.2969 10.034L12.6938 21.284C12.5784 21.5659 12.3041 21.75 11.9996 21.75C11.6951 21.75 11.4208 21.5659 11.3055 21.284L6.70235 10.034C6.60133 9.78712 6.63906 9.50514 6.80144 9.29348L11.4046 3.29348C11.5465 3.10847 11.7664 3 11.9996 3ZM11.9996 4.98215L8.25378 9.86471L11.9996 19.0195L15.7455 9.86471L11.9996 4.98215Z" fill="white"/>
<path fill-rule="evenodd" clip-rule="evenodd" d="M0.75 9.75C0.75 9.33579 1.08579 9 1.5 9H22.5C22.9142 9 23.25 9.33579 23.25 9.75C23.25 10.1642 22.9142 10.5 22.5 10.5H1.5C1.08579 10.5 0.75 10.1642 0.75 9.75Z" fill="white"/>
</svg>
