<svg width="13" height="14" viewBox="0 0 13 14" fill="none" xmlns="http://www.w3.org/2000/svg">
<path fill-rule="evenodd" clip-rule="evenodd" d="M1.48478 3.19019C1.63173 3.02988 1.8808 3.01905 2.04111 3.166L6.50004 7.25335L10.959 3.166C11.1193 3.01905 11.3683 3.02988 11.5153 3.19019C11.6622 3.35049 11.6514 3.59956 11.4911 3.74651L6.76611 8.07776C6.61557 8.21575 6.38451 8.21575 6.23397 8.07776L1.50897 3.74651C1.34867 3.59956 1.33784 3.35049 1.48478 3.19019Z" fill="#E0E4EB"/>
<path fill-rule="evenodd" clip-rule="evenodd" d="M1.38129 3.45625C1.38129 3.23879 1.55757 3.0625 1.77504 3.0625H11.225C11.4425 3.0625 11.6188 3.23879 11.6188 3.45625V10.15C11.6188 10.3589 11.5358 10.5592 11.3881 10.7068C11.2404 10.8545 11.0401 10.9375 10.8313 10.9375H2.16879C1.95993 10.9375 1.75963 10.8545 1.61194 10.7068C1.46426 10.5592 1.38129 10.3589 1.38129 10.15V3.45625ZM2.16879 3.85V10.15H10.8313V3.85H2.16879Z" fill="#E0E4EB"/>
<path fill-rule="evenodd" clip-rule="evenodd" d="M5.9289 6.73406C6.07588 6.89433 6.06511 7.14341 5.90485 7.29039L2.16422 10.7209C2.00395 10.8679 1.75488 10.8571 1.60789 10.6969C1.46091 10.5366 1.47168 10.2875 1.63195 10.1406L5.37257 6.71001C5.53284 6.56302 5.78192 6.57379 5.9289 6.73406Z" fill="#E0E4EB"/>
<path fill-rule="evenodd" clip-rule="evenodd" d="M7.07115 6.73406C7.21813 6.57379 7.46721 6.56302 7.62748 6.71001L11.3681 10.1406C11.5284 10.2875 11.5391 10.5366 11.3922 10.6969C11.2452 10.8571 10.9961 10.8679 10.8358 10.7209L7.09521 7.29039C6.93494 7.14341 6.92417 6.89433 7.07115 6.73406Z" fill="#E0E4EB"/>
</svg>
