<svg width="21" height="20" viewBox="0 0 21 20" fill="none" xmlns="http://www.w3.org/2000/svg">
<path d="M10.5 13.125C12.2259 13.125 13.625 11.7259 13.625 10C13.625 8.27411 12.2259 6.875 10.5 6.875C8.77411 6.875 7.375 8.27411 7.375 10C7.375 11.7259 8.77411 13.125 10.5 13.125Z" stroke="#F4F4F4" stroke-miterlimit="10"/>
<path d="M13.9375 2.8125H7.0625C4.99143 2.8125 3.3125 4.49143 3.3125 6.5625V13.4375C3.3125 15.5086 4.99143 17.1875 7.0625 17.1875H13.9375C16.0086 17.1875 17.6875 15.5086 17.6875 13.4375V6.5625C17.6875 4.49143 16.0086 2.8125 13.9375 2.8125Z" stroke="#F4F4F4" stroke-linecap="round" stroke-linejoin="round"/>
<path d="M15 6.25C15 6.31904 14.944 6.375 14.875 6.375C14.806 6.375 14.75 6.31904 14.75 6.25C14.75 6.18096 14.806 6.125 14.875 6.125C14.944 6.125 15 6.18096 15 6.25Z" fill="#F4F4F4" stroke="#F4F4F4"/>
</svg>
