<svg width="24" height="24" viewBox="0 0 24 24" fill="none" xmlns="http://www.w3.org/2000/svg">
<path fill-rule="evenodd" clip-rule="evenodd" d="M3.04505 6.04638C3.04504 6.04654 3.04504 6.04672 3.04504 6.04693V17.9532C3.04504 17.9534 3.04504 17.9536 3.04505 17.9537C3.04515 17.9539 3.04528 17.954 3.04545 17.9542C3.04562 17.9543 3.04577 17.9545 3.04589 17.9546C3.04605 17.9546 3.04623 17.9546 3.04645 17.9546H20.9527C20.9529 17.9546 20.9531 17.9546 20.9532 17.9546C20.9534 17.9545 20.9535 17.9543 20.9537 17.9542C20.9539 17.954 20.954 17.9539 20.9541 17.9537C20.9541 17.9536 20.9541 17.9534 20.9541 17.9532V6.04693C20.9541 6.04672 20.9541 6.04654 20.9541 6.04638C20.954 6.04626 20.9539 6.04611 20.9537 6.04594C20.9535 6.04577 20.9534 6.04564 20.9532 6.04554C20.9531 6.04553 20.9529 6.04553 20.9527 6.04553H3.04645C3.04623 6.04553 3.04605 6.04553 3.04589 6.04554C3.04577 6.04564 3.04562 6.04577 3.04545 6.04594C3.04528 6.04611 3.04515 6.04626 3.04505 6.04638ZM1.4541 6.04693C1.4541 5.16751 2.16702 4.45459 3.04645 4.45459H20.9527C21.8321 4.45459 22.545 5.16751 22.545 6.04693V17.9532C22.545 18.8326 21.8321 19.5455 20.9527 19.5455H3.04645C2.16702 19.5455 1.4541 18.8326 1.4541 17.9532V6.04693Z" fill="white"/>
<path fill-rule="evenodd" clip-rule="evenodd" d="M4.5 12C4.5 11.5858 4.83579 11.25 5.25 11.25H18.75C19.1642 11.25 19.5 11.5858 19.5 12C19.5 12.4142 19.1642 12.75 18.75 12.75H5.25C4.83579 12.75 4.5 12.4142 4.5 12Z" fill="white"/>
<path fill-rule="evenodd" clip-rule="evenodd" d="M4.5 9C4.5 8.58579 4.83579 8.25 5.25 8.25H18.75C19.1642 8.25 19.5 8.58579 19.5 9C19.5 9.41421 19.1642 9.75 18.75 9.75H5.25C4.83579 9.75 4.5 9.41421 4.5 9Z" fill="white"/>
<path fill-rule="evenodd" clip-rule="evenodd" d="M4.5 15C4.5 14.5858 4.83579 14.25 5.25 14.25H6C6.41421 14.25 6.75 14.5858 6.75 15C6.75 15.4142 6.41421 15.75 6 15.75H5.25C4.83579 15.75 4.5 15.4142 4.5 15Z" fill="white"/>
<path fill-rule="evenodd" clip-rule="evenodd" d="M8.25 15C8.25 14.5858 8.58579 14.25 9 14.25H15C15.4142 14.25 15.75 14.5858 15.75 15C15.75 15.4142 15.4142 15.75 15 15.75H9C8.58579 15.75 8.25 15.4142 8.25 15Z" fill="white"/>
<path fill-rule="evenodd" clip-rule="evenodd" d="M17.25 15C17.25 14.5858 17.5858 14.25 18 14.25H18.75C19.1642 14.25 19.5 14.5858 19.5 15C19.5 15.4142 19.1642 15.75 18.75 15.75H18C17.5858 15.75 17.25 15.4142 17.25 15Z" fill="white"/>
</svg>
