<svg width="24" height="24" viewBox="0 0 24 24" fill="none" xmlns="http://www.w3.org/2000/svg">
<path fill-rule="evenodd" clip-rule="evenodd" d="M4.5 19.5C4.08579 19.5 3.75 19.1642 3.75 18.75L3.75 5.25C3.75 4.83579 4.08579 4.5 4.5 4.5L19.5 4.5C19.9142 4.5 20.25 4.83579 20.25 5.25L20.25 18.75C20.25 19.1642 19.9142 19.5 19.5 19.5L4.5 19.5ZM5.25 18L18.75 18L18.75 6L5.25 6L5.25 18Z" fill="white"/>
<path fill-rule="evenodd" clip-rule="evenodd" d="M1.5 18.75C1.5 18.3358 1.83579 18 2.25 18L4.5 18C4.91421 18 5.25 18.3358 5.25 18.75C5.25 19.1642 4.91421 19.5 4.5 19.5L2.25 19.5C1.83579 19.5 1.5 19.1642 1.5 18.75Z" fill="white"/>
<path fill-rule="evenodd" clip-rule="evenodd" d="M1.5 14.25C1.5 13.8358 1.83579 13.5 2.25 13.5L4.5 13.5C4.91421 13.5 5.25 13.8358 5.25 14.25C5.25 14.6642 4.91421 15 4.5 15L2.25 15C1.83579 15 1.5 14.6642 1.5 14.25Z" fill="white"/>
<path fill-rule="evenodd" clip-rule="evenodd" d="M1.5 5.25C1.5 4.83579 1.83579 4.5 2.25 4.5L4.5 4.5C4.91421 4.5 5.25 4.83579 5.25 5.25C5.25 5.66421 4.91421 6 4.5 6L2.25 6C1.83579 6 1.5 5.66421 1.5 5.25Z" fill="white"/>
<path fill-rule="evenodd" clip-rule="evenodd" d="M18.75 18.75C18.75 18.3358 19.0858 18 19.5 18L21.75 18C22.1642 18 22.5 18.3358 22.5 18.75C22.5 19.1642 22.1642 19.5 21.75 19.5L19.5 19.5C19.0858 19.5 18.75 19.1642 18.75 18.75Z" fill="white"/>
<path fill-rule="evenodd" clip-rule="evenodd" d="M18.75 14.25C18.75 13.8358 19.0858 13.5 19.5 13.5L21.75 13.5C22.1642 13.5 22.5 13.8358 22.5 14.25C22.5 14.6642 22.1642 15 21.75 15L19.5 15C19.0858 15 18.75 14.6642 18.75 14.25Z" fill="white"/>
<path fill-rule="evenodd" clip-rule="evenodd" d="M1.5 9.75C1.5 9.33579 1.83579 9 2.25 9L4.5 9C4.91421 9 5.25 9.33579 5.25 9.75C5.25 10.1642 4.91421 10.5 4.5 10.5L2.25 10.5C1.83579 10.5 1.5 10.1642 1.5 9.75Z" fill="white"/>
<path fill-rule="evenodd" clip-rule="evenodd" d="M18.75 9.75C18.75 9.33579 19.0858 9 19.5 9L21.75 9C22.1642 9 22.5 9.33579 22.5 9.75C22.5 10.1642 22.1642 10.5 21.75 10.5L19.5 10.5C19.0858 10.5 18.75 10.1642 18.75 9.75Z" fill="white"/>
<path fill-rule="evenodd" clip-rule="evenodd" d="M18.75 5.25C18.75 4.83579 19.0858 4.5 19.5 4.5L21.75 4.5C22.1642 4.5 22.5 4.83579 22.5 5.25C22.5 5.66421 22.1642 6 21.75 6L19.5 6C19.0858 6 18.75 5.66421 18.75 5.25Z" fill="white"/>
<path fill-rule="evenodd" clip-rule="evenodd" d="M7.5 12C7.5 11.7366 7.63822 11.4924 7.86413 11.3569L11.6141 9.10688C11.8516 8.96437 12.1484 8.96437 12.3859 9.10688L16.1359 11.3569C16.3618 11.4924 16.5 11.7366 16.5 12C16.5 12.2634 16.3618 12.5076 16.1359 12.6431L12.3859 14.8931C12.1484 15.0356 11.8516 15.0356 11.6141 14.8931L7.86413 12.6431C7.63822 12.5076 7.5 12.2634 7.5 12ZM12 13.3754L14.2923 12L12 10.6246L9.70774 12L12 13.3754Z" fill="white"/>
</svg>
