<svg width="25" height="25" viewBox="0 0 25 25" fill="none" xmlns="http://www.w3.org/2000/svg">
<path fill-rule="evenodd" clip-rule="evenodd" d="M13.2953 3.7722C13.0275 3.70736 12.7487 3.70235 12.4787 3.75753C12.2087 3.8127 11.9542 3.92671 11.7333 4.09144C11.5124 4.25617 11.3305 4.46757 11.2006 4.71059C11.0706 4.95361 10.9959 5.22228 10.9816 5.49748L10.9813 5.50277L10.9813 5.50277C10.9623 5.82594 11.029 6.14842 11.1746 6.43754C11.2904 6.66747 11.2802 6.94075 11.1476 7.1614C11.0149 7.38206 10.7784 7.51924 10.521 7.52479L6.14385 7.61911L6.23009 11.6213C6.23563 11.8787 6.1088 12.1209 5.89412 12.2629C5.67944 12.405 5.40691 12.427 5.1722 12.3213C4.92095 12.2081 4.64785 12.1517 4.37231 12.156C4.09678 12.1604 3.8256 12.2255 3.57807 12.3466C3.33054 12.4677 3.11274 12.6418 2.94018 12.8567C2.76762 13.0715 2.64454 13.3218 2.5797 13.5896C2.51486 13.8574 2.50984 14.1363 2.56502 14.4062C2.6202 14.6762 2.73421 14.9307 2.89894 15.1516C3.06367 15.3726 3.27507 15.5544 3.51809 15.6844C3.76111 15.8143 4.02978 15.889 4.30497 15.9033L4.31026 15.9036L4.31026 15.9036C4.63344 15.9226 4.95591 15.8559 5.24504 15.7103C5.47497 15.5945 5.74825 15.6047 5.9689 15.7373C6.18955 15.87 6.32674 16.1066 6.33229 16.364L6.41853 20.3661L19.9154 20.0753L19.8504 17.0569C19.7313 17.073 19.6112 17.0828 19.4906 17.086C18.9947 17.0995 18.502 17.0036 18.0475 16.805C17.5929 16.6064 17.1878 16.3101 16.8608 15.9371C16.5338 15.5641 16.2931 15.1236 16.1557 14.647C16.0183 14.1704 15.9877 13.6694 16.066 13.1796C16.1443 12.6898 16.3296 12.2232 16.6087 11.8132C16.8878 11.4032 17.2538 11.0597 17.6808 10.8072C18.107 10.5552 18.5834 10.4 19.0763 10.3527C19.2864 10.3314 19.4971 10.3301 19.7058 10.3485L19.6407 7.32827L15.2636 7.42259C15.0062 7.42814 14.764 7.30131 14.622 7.08662C14.4799 6.87194 14.4579 6.59941 14.5636 6.36471C14.6768 6.11346 14.7332 5.84035 14.7289 5.56482C14.7245 5.28929 14.6595 5.01811 14.5384 4.77057C14.4173 4.52304 14.2431 4.30525 14.0282 4.13269C13.8134 3.96013 13.5631 3.83705 13.2953 3.7722ZM12.1783 2.2879C12.6643 2.18858 13.1662 2.1976 13.6483 2.31432C14.1304 2.43104 14.5808 2.65258 14.9675 2.96319C15.3543 3.2738 15.6678 3.66583 15.8857 4.11139C16.1037 4.55694 16.2208 5.04507 16.2287 5.54103C16.2306 5.66169 16.226 5.7821 16.2151 5.90174L19.6084 5.82862C20.0061 5.82005 20.391 5.96983 20.6783 6.24501C20.9656 6.52019 21.1318 6.89823 21.1404 7.29596L21.2266 11.2982C21.2322 11.5556 21.1053 11.7978 20.8906 11.9398C20.6758 12.0819 20.4032 12.1039 20.1685 11.998C19.8734 11.865 19.5484 11.8123 19.2263 11.8452L19.221 11.8457C18.9467 11.8718 18.6815 11.9581 18.4443 12.0983C18.2071 12.2386 18.0037 12.4294 17.8487 12.6572C17.6936 12.885 17.5907 13.1442 17.5472 13.4163C17.5037 13.6884 17.5207 13.9668 17.597 14.2316C17.6733 14.4964 17.8071 14.7411 17.9887 14.9483C18.1704 15.1555 18.3955 15.3201 18.648 15.4305C18.9005 15.5408 19.1743 15.5941 19.4497 15.5866C19.7252 15.5791 19.9956 15.511 20.2417 15.3871C20.4717 15.2713 20.7449 15.2816 20.9655 15.4142C21.1861 15.5469 21.3233 15.7834 21.3288 16.0408L21.415 20.043C21.4236 20.4407 21.2738 20.8256 20.9987 21.1129C20.7235 21.4002 20.3454 21.5664 19.9477 21.575L6.45084 21.8658C6.05311 21.8744 5.66826 21.7246 5.38096 21.4494C5.09366 21.1742 4.92744 20.7962 4.91887 20.3985L4.85379 17.3782C4.64615 17.4056 4.43557 17.4134 4.22483 17.4011C3.73034 17.3751 3.24762 17.2407 2.81092 17.0072C2.37348 16.7733 1.99296 16.446 1.69645 16.0483C1.39994 15.6507 1.19472 15.1926 1.0954 14.7066C0.99608 14.2206 1.0051 13.7187 1.12182 13.2366C1.23853 12.7545 1.46008 12.3041 1.77069 11.9174C2.0813 11.5306 2.47333 11.2171 2.91889 10.9992C3.36444 10.7812 3.85257 10.6641 4.34853 10.6562C4.46919 10.6543 4.5896 10.6589 4.70924 10.6698L4.6442 7.65142C4.63563 7.25369 4.78541 6.86884 5.06058 6.58154C5.33576 6.29425 5.7138 6.12803 6.11153 6.11946L9.50667 6.0463C9.47934 5.83861 9.47152 5.62799 9.48377 5.4172C9.50979 4.92276 9.64428 4.44009 9.87771 4.00342C10.1116 3.56598 10.439 3.18547 10.8366 2.88896C11.2342 2.59244 11.6923 2.38722 12.1783 2.2879Z" fill="white"/>
</svg>
