<svg width="24" height="24" viewBox="0 0 24 24" fill="none" xmlns="http://www.w3.org/2000/svg">
<path fill-rule="evenodd" clip-rule="evenodd" d="M3.375 4.875C3.375 4.04657 4.04657 3.375 4.875 3.375H19.125C19.9534 3.375 20.625 4.04657 20.625 4.875V19.125C20.625 19.9534 19.9534 20.625 19.125 20.625H4.875C4.04657 20.625 3.375 19.9534 3.375 19.125V4.875ZM19.125 4.875H4.875V19.125H19.125V4.875Z" fill="white"/>
<path fill-rule="evenodd" clip-rule="evenodd" d="M12 3.375C12.4142 3.375 12.75 3.71079 12.75 4.125V19.875C12.75 20.2892 12.4142 20.625 12 20.625C11.5858 20.625 11.25 20.2892 11.25 19.875V4.125C11.25 3.71079 11.5858 3.375 12 3.375Z" fill="white"/>
<path fill-rule="evenodd" clip-rule="evenodd" d="M11.25 7.5C11.25 7.08579 11.5858 6.75 12 6.75H19.875C20.2892 6.75 20.625 7.08579 20.625 7.5C20.625 7.91421 20.2892 8.25 19.875 8.25H12C11.5858 8.25 11.25 7.91421 11.25 7.5Z" fill="white"/>
<path fill-rule="evenodd" clip-rule="evenodd" d="M11.25 10.5C11.25 10.0858 11.5858 9.75 12 9.75H19.875C20.2892 9.75 20.625 10.0858 20.625 10.5C20.625 10.9142 20.2892 11.25 19.875 11.25H12C11.5858 11.25 11.25 10.9142 11.25 10.5Z" fill="white"/>
<path fill-rule="evenodd" clip-rule="evenodd" d="M11.25 13.5C11.25 13.0858 11.5858 12.75 12 12.75H19.875C20.2892 12.75 20.625 13.0858 20.625 13.5C20.625 13.9142 20.2892 14.25 19.875 14.25H12C11.5858 14.25 11.25 13.9142 11.25 13.5Z" fill="white"/>
<path fill-rule="evenodd" clip-rule="evenodd" d="M11.25 16.5C11.25 16.0858 11.5858 15.75 12 15.75H19.875C20.2892 15.75 20.625 16.0858 20.625 16.5C20.625 16.9142 20.2892 17.25 19.875 17.25H12C11.5858 17.25 11.25 16.9142 11.25 16.5Z" fill="white"/>
</svg>
