<svg width="26" height="21" viewBox="0 0 26 21" fill="none" xmlns="http://www.w3.org/2000/svg">
<path d="M13 16.2687C13.0001 15.9276 13.0898 15.5925 13.2603 15.2971C13.4307 15.0017 13.6759 14.7563 13.9711 14.5855L24.676 8.39769C24.7745 8.34074 24.8563 8.25887 24.9132 8.1603C24.9701 8.06173 25 7.94994 25 7.83614C25 7.72234 24.9701 7.61055 24.9132 7.51198C24.8563 7.41341 24.7745 7.33154 24.676 7.27459L13.9711 1.08674C13.8727 1.02994 13.7612 1.00003 13.6476 1C13.534 0.999971 13.4224 1.02983 13.324 1.08657C13.2256 1.14332 13.1438 1.22495 13.087 1.32328C13.0301 1.4216 13.0001 1.53316 13 1.64675M13 16.2687V19.0577M13 16.2687C12.9999 15.9276 12.9102 15.5925 12.7397 15.2971C12.5693 15.0017 12.3241 14.7563 12.0289 14.5855L1.32401 8.39769C1.22549 8.34074 1.14368 8.25887 1.08681 8.1603C1.02994 8.06173 1 7.94994 1 7.83614C1 7.72234 1.02994 7.61055 1.08681 7.51198C1.14368 7.41341 1.22549 7.33154 1.32401 7.27459L12.0289 1.08674C12.1273 1.02994 12.2388 1.00003 12.3524 1C12.466 0.999971 12.5776 1.02983 12.676 1.08657C12.7744 1.14332 12.8562 1.22495 12.913 1.32328C12.9699 1.4216 12.9999 1.53316 13 1.64675M13 19.0577C13.0001 19.1712 13.0301 19.2828 13.087 19.3811C13.1438 19.4795 13.2256 19.5611 13.324 19.6178C13.4224 19.6746 13.534 19.7044 13.6476 19.7044C13.7612 19.7044 13.8727 19.6745 13.9711 19.6177L18.4451 17.0318C18.7404 16.8611 18.9857 16.6157 19.1563 16.3203C19.3268 16.0249 19.4167 15.6898 19.4168 15.3486V12.4975C19.4168 12.1563 19.327 11.821 19.1564 11.5255C18.9858 11.2299 18.7405 10.9845 18.4451 10.8138L13.9711 8.22784C13.6757 8.05699 13.4304 7.8114 13.2599 7.51574C13.0895 7.22008 12.9998 6.88477 13 6.54349M13 19.0577C12.9999 19.1712 12.9699 19.2828 12.913 19.3811C12.8562 19.4795 12.7744 19.5611 12.676 19.6178C12.5776 19.6746 12.466 19.7044 12.3524 19.7044C12.2388 19.7044 12.1273 19.6745 12.0289 19.6177L7.55494 17.0318C7.25957 16.8611 7.0143 16.6157 6.84374 16.3203C6.67318 16.0249 6.58333 15.6898 6.58322 15.3486V12.4975C6.58323 12.1563 6.67302 11.821 6.84359 11.5255C7.01415 11.2299 7.25948 10.9845 7.55494 10.8138L12.0289 8.22784C12.3243 8.05699 12.5696 7.8114 12.7401 7.51574C12.9105 7.22008 13.0002 6.88477 13 6.54349M13 6.54349V1.64675" stroke="white" stroke-width="1.2" stroke-linecap="round" stroke-linejoin="round"/>
</svg>
