<svg width="100" height="100" viewBox="0 0 100 100" fill="none" xmlns="http://www.w3.org/2000/svg">
<path d="M90.2695 9.73063L90.2694 9.73054C86.5781 6.0395 81.8537 4.33417 75.7206 3.5096C69.6985 2.69995 61.9587 2.69998 51.9862 2.70001L51.792 2.70001H48.208L48.0138 2.70001C38.0411 2.69998 30.3012 2.69995 24.2791 3.5096C18.1461 4.33417 13.4217 6.03951 9.7306 9.73061C6.03949 13.4217 4.33415 18.1461 3.50959 24.2791C2.69994 30.3012 2.69996 38.0411 2.7 48.0138L2.7 48.208V51.792L2.7 51.9862C2.69996 61.9587 2.69994 69.6985 3.50959 75.7206C4.33415 81.8537 6.03949 86.5781 9.73053 90.2695L9.73062 90.2696C13.4217 93.9606 18.1461 95.6659 24.2791 96.4904C30.3012 97.3001 38.0411 97.3 48.0137 97.3H48.208H51.792H51.9863C61.9587 97.3 69.6985 97.3001 75.7206 96.4904C81.8537 95.6659 86.5781 93.9606 90.2694 90.2696L90.2696 90.2694C93.9606 86.5781 95.6659 81.8537 96.4904 75.7206C97.3001 69.6986 97.3 61.9587 97.3 51.9863V51.792V48.208V48.0138C97.3 38.0411 97.3001 30.3012 96.4904 24.2791C95.6659 18.1461 93.9606 13.4217 90.2695 9.73063Z" stroke="#696969" stroke-width="5"></path>
<path d="M52.8749 69.7497C32.4532 69.7497 20.8054 55.7497 20.3201 32.4535H30.5494C30.8854 49.5522 38.4266 56.7949 44.3999 58.288V32.4535H54.032V47.2002C59.9309 46.5655 66.1274 39.8455 68.2182 32.4535H77.8502C76.2451 41.5629 69.5251 48.2829 64.7462 51.0457C69.5251 53.2857 77.1789 59.1469 80.0909 69.7497H69.488C67.2102 62.656 61.536 57.168 54.032 56.4217V69.7497H52.8749Z" stroke="#696969" stroke-width="4"></path>
</svg>
