<svg width="24" height="24" viewBox="0 0 24 24" fill="none" xmlns="http://www.w3.org/2000/svg">
<path fill-rule="evenodd" clip-rule="evenodd" d="M15.9291 3.82983C15.2481 3.70516 14.5453 3.71594 13.8615 3.86605C12.7938 4.10047 11.826 4.66293 11.0939 5.47467C10.3617 6.28641 9.90164 7.3068 9.77819 8.39299C9.65475 9.47918 9.87406 10.5768 10.4054 11.5321C10.5782 11.8428 10.5092 12.2322 10.24 12.4645L4.16922 17.704C3.89805 17.9843 3.74609 18.3592 3.74609 18.7498C3.74609 19.1487 3.90454 19.5312 4.18658 19.8132C4.46861 20.0953 4.85114 20.2537 5.25 20.2537C5.6406 20.2537 6.01553 20.1018 6.29577 19.8306L11.226 14.1182C11.4261 13.8863 11.7 13.7306 12.0015 13.6771V13.6771C12.303 13.6236 12.6113 13.6814 12.8913 13.8055C13.7407 14.1821 14.6779 14.3272 15.6068 14.2216C16.693 14.0982 17.7134 13.6381 18.5251 12.9059C19.3369 12.1737 19.8993 11.206 20.1337 10.1383C20.2839 9.45454 20.2946 8.7517 20.17 8.07072L17.1247 11.1232C16.9471 11.3013 16.6922 11.3784 16.4457 11.3288L13.7925 10.7944C13.4964 10.7348 13.265 10.5034 13.2054 10.2073L12.671 7.55414C12.6214 7.30765 12.6985 7.05267 12.8765 6.87509L15.9291 3.82983ZM12.2909 15.1801L7.41152 20.8336C7.39954 20.8475 7.38705 20.8609 7.37408 20.8739C6.81074 21.4372 6.04668 21.7537 5.25 21.7537C4.45331 21.7537 3.68926 21.4372 3.12592 20.8739C2.56258 20.3105 2.24609 19.5465 2.24609 18.7498C2.24609 17.9531 2.56258 17.1891 3.12592 16.6257C3.13889 16.6128 3.15233 16.6003 3.16621 16.5883L8.81966 11.7089C8.33778 10.6183 8.15232 9.41561 8.28779 8.22361C8.44656 6.82653 9.03825 5.51407 9.98002 4.46999C10.9218 3.4259 12.1665 2.70246 13.5399 2.40095C14.9132 2.09943 16.3465 2.23494 17.639 2.78849C17.868 2.88655 18.0333 3.09186 18.0803 3.33644C18.1273 3.58103 18.0498 3.83299 17.8734 4.00889L14.221 7.65266L14.5774 9.42238L16.3471 9.77882L19.9909 6.12635C20.1668 5.95003 20.4188 5.87253 20.6634 5.91952C20.9079 5.9665 21.1133 6.13184 21.2113 6.36078C21.7649 7.65331 21.9004 9.08658 21.5989 10.4599C21.2973 11.8333 20.5739 13.078 19.5298 14.0198C18.4857 14.9615 17.1733 15.5532 15.7762 15.712C14.5842 15.8475 13.3815 15.662 12.2909 15.1801Z" fill="white"/>
</svg>
