<svg width="25" height="24" viewBox="0 0 25 24" fill="none" xmlns="http://www.w3.org/2000/svg">
<path d="M20.3654 7H4.36536C3.26079 7 2.36536 7.89543 2.36536 9V19C2.36536 20.1046 3.26079 21 4.36536 21H20.3654C21.4699 21 22.3654 20.1046 22.3654 19V9C22.3654 7.89543 21.4699 7 20.3654 7Z" stroke="white" stroke-width="2" stroke-linecap="round" stroke-linejoin="round"/>
<path d="M16.3654 21V5C16.3654 4.46957 16.1546 3.96086 15.7796 3.58579C15.4045 3.21071 14.8958 3 14.3654 3H10.3654C9.83492 3 9.32622 3.21071 8.95114 3.58579C8.57607 3.96086 8.36536 4.46957 8.36536 5V21" stroke="white" stroke-width="2" stroke-linecap="round" stroke-linejoin="round"/>
</svg>
