<svg width="21" height="21" viewBox="0 0 21 21" fill="none" xmlns="http://www.w3.org/2000/svg">
<path d="M10.5 20C11.7478 20.0016 12.9836 19.7566 14.1364 19.2791C15.2892 18.8016 16.3363 18.1009 17.2174 17.2174C18.1009 16.3363 18.8016 15.2892 19.2791 14.1364C19.7566 12.9836 20.0016 11.7478 20 10.5C20.0016 9.25221 19.7566 8.01641 19.2791 6.86361C18.8015 5.7108 18.1009 4.66373 17.2174 3.78256C16.3363 2.89907 15.2892 2.19843 14.1364 1.72091C12.9836 1.24338 11.7478 0.998391 10.5 1.00001C9.25221 0.998417 8.01641 1.24342 6.86361 1.72094C5.7108 2.19847 4.66373 2.89909 3.78256 3.78256C2.89909 4.66373 2.19847 5.7108 1.72094 6.86361C1.24342 8.01641 0.998417 9.25221 1.00001 10.5C0.998391 11.7478 1.24338 12.9836 1.72091 14.1364C2.19843 15.2892 2.89907 16.3363 3.78256 17.2174C4.66373 18.1009 5.7108 18.8015 6.86361 19.2791C8.01641 19.7566 9.25221 20.0016 10.5 20Z" stroke="white" stroke-width="2" stroke-linejoin="round"/>
<path fill-rule="evenodd" clip-rule="evenodd" d="M10.5 16.675C10.8149 16.675 11.117 16.5498 11.3397 16.3271C11.5624 16.1044 11.6875 15.8024 11.6875 15.4875C11.6875 15.1725 11.5624 14.8705 11.3397 14.6478C11.117 14.4251 10.8149 14.3 10.5 14.3C10.1851 14.3 9.88301 14.4251 9.66031 14.6478C9.43761 14.8705 9.3125 15.1725 9.3125 15.4875C9.3125 15.8024 9.43761 16.1044 9.66031 16.3271C9.88301 16.5498 10.1851 16.675 10.5 16.675Z" fill="white"/>
<path d="M10.5 4.45459V12.2273" stroke="white" stroke-width="2" stroke-linecap="round" stroke-linejoin="round"/>
</svg>
