<svg width="3564" height="373" viewBox="0 0 3564 373" fill="none" xmlns="http://www.w3.org/2000/svg">
<path opacity="0.4" d="M3564 205.46C3561.73 203.814 3559.41 202.231 3557.2 200.509C3551.92 196.393 3546.67 192.234 3541.45 188.051C3536.21 183.863 3531.03 179.599 3525.8 175.411C3520.67 171.321 3515.49 167.306 3510.37 163.22C3505.83 159.598 3501.34 155.916 3496.81 152.277C3491.75 148.208 3486.67 144.151 3481.6 140.098C3477.01 136.438 3472.42 132.787 3467.82 129.143C3462.63 125.027 3457.42 120.937 3452.23 116.812C3447.2 112.815 3442.19 108.783 3437.17 104.777C3431.07 99.9093 3424.96 95.0587 3418.87 90.1829C3416.44 88.2367 3414.07 86.2146 3411.63 84.2854C3409.37 82.5039 3407.3 82.7445 3405.6 84.9988C3400.26 92.1121 3394.99 99.2761 3389.63 106.368C3383.51 114.457 3377.31 122.486 3371.16 130.549C3367.52 135.32 3363.89 140.107 3360.26 144.886C3354.97 151.86 3349.67 158.833 3344.37 165.807C3339.49 172.233 3334.63 178.675 3329.71 185.07C3323.31 193.383 3316.81 201.627 3310.43 209.952C3304.73 217.395 3299.15 224.934 3293.45 232.381C3286.27 241.753 3279 251.049 3271.83 260.421C3265.67 268.471 3259.65 276.631 3253.44 284.644C3250.05 289.021 3246.6 293.399 3242.78 297.384C3239.04 301.285 3234.37 303.822 3228.77 304.151C3226.56 304.282 3224.34 304.548 3222.12 304.548C3112.5 304.569 3002.88 304.523 2893.26 304.586C2847.18 304.612 56.5783 304.856 10.5 305V285.598C10.9213 285.598 2755.86 285.61 2756.28 285.61C2856.19 285.471 2956.11 285.302 3056.02 285.201C3114.34 285.142 3172.67 285.112 3230.99 285.277C3239.22 285.302 3245.36 281.756 3250.58 276.12C3254.18 272.228 3257.31 267.884 3260.56 263.675C3267.61 254.561 3274.62 245.413 3281.63 236.265C3287.5 228.594 3293.3 220.877 3299.19 213.224C3306.93 203.16 3314.76 193.155 3322.5 183.086C3328.81 174.884 3335 166.597 3341.31 158.39C3349.05 148.322 3356.87 138.313 3364.62 128.253C3370.6 120.494 3376.53 112.692 3382.47 104.903C3388.32 97.2244 3394.18 89.5454 3400.02 81.8538C3402.85 78.1219 3404.48 77.303 3407.74 78.5314C3409.32 79.1224 3410.83 80.047 3412.17 81.077C3416.66 84.5218 3421.06 88.0848 3425.5 91.5971C3431.13 96.055 3436.77 100.505 3442.39 104.971C3448.07 109.484 3453.71 114.043 3459.41 118.535C3466.29 123.959 3473.23 129.3 3480.1 134.741C3487.2 140.36 3494.21 146.084 3501.3 151.703C3509.68 158.344 3518.12 164.921 3526.53 171.528C3531.75 175.618 3536.97 179.701 3542.16 183.817C3547.14 187.768 3552.05 191.799 3557.05 195.73C3559.3 197.503 3561.68 199.12 3564 200.808V205.448V205.46Z" fill="#241815"/>
<path opacity="0.08" d="M2733.81 256.699C2711.33 256.699 2650.91 256.753 2739.43 256.753C2834.99 256.753 2948.24 256.808 3043.79 256.736C3108.36 256.69 3172.92 256.526 3237.49 256.258C3244.19 256.228 3249.77 253.087 3253.94 247.649C3257.92 242.454 3262.04 237.364 3266.12 232.232C3270.06 227.26 3274.02 222.3 3277.96 217.327C3282.46 211.654 3286.94 205.972 3291.44 200.298C3295.94 194.624 3300.43 188.951 3304.94 183.286C3308.98 178.208 3313.02 173.144 3317.06 168.07C3321.01 163.106 3324.98 158.151 3328.93 153.183C3333.52 147.408 3338.09 141.621 3342.68 135.843C3347.06 130.333 3351.46 124.84 3355.83 119.326C3359.85 114.248 3363.83 109.133 3367.86 104.064C3371.81 99.0962 3375.82 94.1743 3379.77 89.2062C3383.85 84.0827 3387.89 78.9256 3391.93 73.7811C3393.38 71.9417 3394.8 70.077 3396.25 68.2376C3399.53 64.0968 3403.49 63.9792 3407.98 67.5909C3414.38 72.7354 3420.92 77.6993 3427.37 82.7892C3434.46 88.3957 3441.5 94.0819 3448.61 99.68C3454.79 104.543 3461.05 109.305 3467.24 114.16C3472.94 118.633 3478.59 123.181 3484.29 127.67C3489.92 132.113 3495.59 136.527 3501.23 140.958C3506.88 145.393 3512.52 149.836 3518.16 154.271C3523.21 158.235 3528.27 162.178 3533.31 166.147C3539 170.632 3544.68 175.143 3550.37 179.636C3553.84 182.374 3557.35 185.066 3560.76 187.871C3561.96 188.854 3562.93 190.11 3564 191.24V194.175C3562.08 192.73 3560.14 191.311 3558.25 189.833C3549.01 182.605 3539.76 175.369 3530.55 168.121C3523.06 162.233 3515.6 156.299 3508.11 150.411C3498.89 143.158 3489.65 135.927 3480.41 128.695C3475.31 124.697 3470.17 120.741 3465.07 116.726C3459.43 112.283 3453.84 107.777 3448.2 103.325C3442.57 98.8779 3436.9 94.4767 3431.26 90.0461C3426.26 86.1237 3421.28 82.1803 3416.29 78.2578C3413.03 75.7003 3409.78 73.1385 3406.49 70.6272C3405.09 69.5647 3403.51 69.5227 3402.37 70.875C3398.07 76.0069 3393.86 81.2186 3389.66 86.4303C3385.29 91.8519 3380.96 97.3072 3376.6 102.746C3372.07 108.403 3367.53 114.047 3363.02 119.712C3358.38 125.537 3353.78 131.387 3349.15 137.216C3344.64 142.885 3340.11 148.538 3335.6 154.208C3331.61 159.226 3327.65 164.266 3323.67 169.297C3319.78 174.219 3315.87 179.124 3311.99 184.058C3307.26 190.072 3302.57 196.115 3297.85 202.138C3293.01 208.324 3288.14 214.493 3283.31 220.687C3279.32 225.794 3275.36 230.926 3271.39 236.041C3265.81 243.226 3260.23 250.408 3254.66 257.593C3252.12 260.86 3249.75 264.266 3247.03 267.374C3242.18 272.905 3235.44 274.795 3228.56 274.988C3211.04 275.479 3193.51 275.471 3175.98 275.509C3099.27 275.681 3022.56 275.849 2945.85 275.929C2883.01 275.996 2783.72 275.941 2720.88 275.945C2694.54 275.945 313.943 276 396.563 276C-158.532 276 -88.9973 256.678 348.975 256.678L2733.81 256.699Z" fill="white"/>
</svg>
