<svg width="24" height="24" viewBox="0 0 24 24" fill="none" xmlns="http://www.w3.org/2000/svg">
<path fill-rule="evenodd" clip-rule="evenodd" d="M9.75 9C10.1642 9 10.5 9.33579 10.5 9.75V19.5C10.5 19.9142 10.1642 20.25 9.75 20.25C9.33579 20.25 9 19.9142 9 19.5V9.75C9 9.33579 9.33579 9 9.75 9Z" fill="white"/>
<path fill-rule="evenodd" clip-rule="evenodd" d="M2.25 9.75C2.25 9.33579 2.58579 9 3 9H21C21.4142 9 21.75 9.33579 21.75 9.75C21.75 10.1642 21.4142 10.5 21 10.5H3C2.58579 10.5 2.25 10.1642 2.25 9.75Z" fill="white"/>
<path fill-rule="evenodd" clip-rule="evenodd" d="M2.25 5.25C2.25 4.42157 2.92157 3.75 3.75 3.75H20.25C21.0784 3.75 21.75 4.42157 21.75 5.25V18.75C21.75 19.5784 21.0784 20.25 20.25 20.25H3.75C2.92157 20.25 2.25 19.5784 2.25 18.75V5.25ZM20.25 5.25H3.75V18.75H20.25V5.25Z" fill="white"/>
</svg>
