<svg width="206" height="49" viewBox="0 0 206 49" fill="none" xmlns="http://www.w3.org/2000/svg">
<path d="M5.902 25.646V10.28H1.976V29H15.158V25.646H5.902ZM33.4965 29L26.8665 10.28H22.4465L15.7645 29H19.8725L21.1465 25.152H28.0625L29.2585 29H33.4965ZM24.6305 14.57L26.9705 21.928H22.2125L24.6305 14.57ZM39.0522 21.798V10.28H35.0742V21.798C35.0742 23.774 35.3862 25.334 36.0102 26.426C37.1542 28.454 39.3642 29.494 42.6142 29.494C45.8382 29.494 48.0482 28.454 49.1922 26.426C49.8162 25.334 50.1282 23.774 50.1282 21.798V10.28H46.1502V21.798C46.1502 23.072 45.9942 24.008 45.6822 24.606C45.2142 25.672 44.2002 26.192 42.6142 26.192C41.0282 26.192 39.9882 25.672 39.5202 24.606C39.2082 24.008 39.0522 23.072 39.0522 21.798ZM64.5499 23.358L57.0879 10.28H53.0059V29H56.6459V15.714L64.2899 29H68.1899V10.28H64.5499V23.358ZM72.8615 12.23C71.1195 13.998 70.2355 16.546 70.2355 19.796C70.2355 22.812 71.0155 25.204 72.5495 26.92C74.0835 28.662 76.1895 29.52 78.8935 29.52C81.0515 29.52 82.8455 28.896 84.2495 27.596C85.6275 26.322 86.4855 24.658 86.8495 22.63H82.9755C82.6895 23.592 82.3775 24.32 81.9875 24.788C81.2595 25.698 80.2195 26.14 78.8415 26.14C77.5155 26.14 76.3975 25.62 75.5395 24.58C74.6555 23.54 74.2395 21.954 74.2395 19.848C74.2395 17.768 74.6295 16.13 75.4615 14.986C76.2935 13.842 77.4115 13.27 78.8155 13.27C80.2195 13.27 81.2855 13.686 81.9875 14.492C82.3775 14.934 82.7155 15.61 82.9755 16.52H86.8755C86.8235 15.35 86.3815 14.18 85.5755 13.036C84.1195 10.956 81.8315 9.942 78.6855 9.942C76.3195 9.942 74.3955 10.696 72.8615 12.23ZM92.8732 10.28H88.9992V29H92.8732V20.654H100.179V29H104.079V10.28H100.179V17.43H92.8732V10.28Z" fill="#EE3A26"/>
<path d="M125.763 10.774C125.061 10.488 124.047 10.306 122.747 10.28H113.569V29H117.391V21.668H121.421C122.565 21.668 123.371 21.876 123.787 22.266C124.203 22.656 124.411 23.462 124.437 24.658L124.463 26.374C124.463 26.92 124.515 27.466 124.619 27.986C124.671 28.246 124.749 28.584 124.879 29H129.169V28.532C128.805 28.298 128.571 27.934 128.467 27.466C128.389 27.154 128.363 26.582 128.363 25.724V24.476C128.363 23.15 128.181 22.188 127.817 21.538C127.453 20.888 126.855 20.394 125.997 20.056C127.011 19.718 127.765 19.094 128.207 18.236C128.649 17.378 128.883 16.52 128.883 15.61C128.883 14.882 128.779 14.232 128.519 13.66C128.285 13.088 127.973 12.542 127.557 12.074C127.063 11.502 126.465 11.06 125.763 10.774ZM121.811 18.574H117.391V13.53H121.915C122.773 13.53 123.397 13.66 123.839 13.868C124.567 14.258 124.957 15.012 124.957 16.156C124.957 17.196 124.567 17.898 123.787 18.262C123.345 18.47 122.695 18.574 121.811 18.574ZM135.427 21.798V10.28H131.449V21.798C131.449 23.774 131.761 25.334 132.385 26.426C133.529 28.454 135.739 29.494 138.989 29.494C142.213 29.494 144.423 28.454 145.567 26.426C146.191 25.334 146.503 23.774 146.503 21.798V10.28H142.525V21.798C142.525 23.072 142.369 24.008 142.057 24.606C141.589 25.672 140.575 26.192 138.989 26.192C137.403 26.192 136.363 25.672 135.895 24.606C135.583 24.008 135.427 23.072 135.427 21.798ZM152.267 23.228H148.549C148.549 25.178 149.225 26.712 150.629 27.804C152.033 28.922 153.957 29.494 156.375 29.494C158.767 29.494 160.613 28.922 161.939 27.778C163.239 26.66 163.889 25.23 163.889 23.54C163.889 21.876 163.317 20.576 162.199 19.718C161.497 19.146 160.431 18.704 159.001 18.34L155.777 17.586C154.529 17.274 153.723 17.014 153.359 16.806C152.761 16.468 152.449 15.974 152.449 15.298C152.449 14.57 152.761 13.998 153.359 13.608C153.957 13.192 154.763 12.984 155.777 12.984C156.661 12.984 157.441 13.14 158.039 13.452C158.949 13.92 159.443 14.726 159.521 15.87H163.265C163.213 13.868 162.485 12.36 161.081 11.294C159.703 10.254 158.013 9.734 156.037 9.734C153.671 9.734 151.877 10.306 150.681 11.398C149.459 12.516 148.835 13.894 148.835 15.584C148.835 17.43 149.485 18.756 150.733 19.64C151.487 20.16 152.839 20.628 154.763 21.07L156.739 21.512C157.909 21.772 158.767 22.058 159.313 22.396C159.859 22.734 160.119 23.202 160.119 23.826C160.119 24.866 159.573 25.594 158.481 25.984C157.909 26.192 157.155 26.296 156.219 26.296C154.685 26.296 153.593 25.906 152.969 25.152C152.631 24.71 152.371 24.086 152.267 23.228ZM168.828 23.228H165.11C165.11 25.178 165.786 26.712 167.19 27.804C168.594 28.922 170.518 29.494 172.936 29.494C175.328 29.494 177.174 28.922 178.5 27.778C179.8 26.66 180.45 25.23 180.45 23.54C180.45 21.876 179.878 20.576 178.76 19.718C178.058 19.146 176.992 18.704 175.562 18.34L172.338 17.586C171.09 17.274 170.284 17.014 169.92 16.806C169.322 16.468 169.01 15.974 169.01 15.298C169.01 14.57 169.322 13.998 169.92 13.608C170.518 13.192 171.324 12.984 172.338 12.984C173.222 12.984 174.002 13.14 174.6 13.452C175.51 13.92 176.004 14.726 176.082 15.87H179.826C179.774 13.868 179.046 12.36 177.642 11.294C176.264 10.254 174.574 9.734 172.598 9.734C170.232 9.734 168.438 10.306 167.242 11.398C166.02 12.516 165.396 13.894 165.396 15.584C165.396 17.43 166.046 18.756 167.294 19.64C168.048 20.16 169.4 20.628 171.324 21.07L173.3 21.512C174.47 21.772 175.328 22.058 175.874 22.396C176.42 22.734 176.68 23.202 176.68 23.826C176.68 24.866 176.134 25.594 175.042 25.984C174.47 26.192 173.716 26.296 172.78 26.296C171.246 26.296 170.154 25.906 169.53 25.152C169.192 24.71 168.932 24.086 168.828 23.228ZM182.244 10.28V29H186.144V10.28H182.244ZM205.418 29L198.788 10.28H194.368L187.686 29H191.794L193.068 25.152H199.984L201.18 29H205.418ZM196.552 14.57L198.892 21.928H194.134L196.552 14.57Z" fill="white"/>
<g clip-path="url(#clip0_218_2165)">
<path d="M80.0399 42.9669C80.3083 43.3358 80.4454 43.7841 80.4292 44.2401C80.4427 44.5609 80.3745 44.8798 80.2309 45.167C80.0874 45.4541 79.8732 45.7001 79.6084 45.8817C78.8783 46.2912 78.0442 46.4778 77.2092 46.4184H73V38.3473H76.9566C77.7549 38.296 78.5493 38.4946 79.2296 38.9155C79.4821 39.0829 79.6879 39.3117 79.8278 39.5804C79.9677 39.8492 80.037 40.149 80.0294 40.4519C80.0393 40.8187 79.9459 41.181 79.7598 41.4973C79.5738 41.8136 79.3025 42.0712 78.9771 42.2408C79.3961 42.3708 79.7664 42.6238 80.0399 42.9669ZM74.8626 39.81V41.6725H76.7251C77.092 41.6957 77.4576 41.6116 77.7774 41.4305C77.8955 41.3515 77.9907 41.2428 78.0535 41.1153C78.1163 40.9879 78.1445 40.8462 78.1352 40.7044C78.144 40.5657 78.1154 40.4271 78.0525 40.3031C77.9895 40.1791 77.8946 40.0742 77.7774 39.9994C77.4576 39.8183 77.092 39.7342 76.7251 39.7573L74.8626 39.81ZM78.1668 44.7979C78.2913 44.7163 78.3919 44.6032 78.4584 44.4701C78.525 44.3371 78.5551 44.1887 78.5456 44.0402C78.5456 43.3667 78.051 42.9879 77.0513 42.9879H74.8626V44.9873H77.0513C77.4335 45.0271 77.8192 44.9616 78.1668 44.7979Z" fill="white"/>
<path d="M87.4793 46.4186L85.9219 44.1983H84.1961V46.4186H82.3125V38.3475H85.8272C86.4807 38.3244 87.1312 38.4466 87.7318 38.7053C88.2364 38.9165 88.6647 39.2763 88.9598 39.7368C89.2549 40.1973 89.4029 40.7368 89.3839 41.2834C89.3983 41.8339 89.2481 42.3762 88.9525 42.8408C88.652 43.3028 88.2245 43.6682 87.7213 43.8931L89.4892 46.4186H87.4793ZM87.0058 40.2101C86.6331 39.943 86.1795 39.8129 85.7219 39.8418H84.1961V42.704H85.7219C86.1814 42.7353 86.6369 42.6009 87.0058 42.3252C87.1562 42.1963 87.2745 42.034 87.3512 41.8513C87.428 41.6686 87.461 41.4706 87.4477 41.2729C87.4577 41.0786 87.4231 40.8847 87.3464 40.7059C87.2698 40.5272 87.1533 40.3683 87.0058 40.2416V40.2101Z" fill="white"/>
<path d="M96.6245 44.7136H92.8678L92.1417 46.4183H90.2266L93.8359 38.3472H95.688L99.3079 46.4183H97.3401L96.6245 44.7136ZM96.0352 43.2614L94.7514 40.1887L93.4676 43.2614H96.0352Z" fill="white"/>
<path d="M100.623 38.3472H102.465V46.4183H100.623V38.3472Z" fill="white"/>
<path d="M112.314 38.3472V46.4183H110.767L106.726 41.5356V46.4183H104.874V38.3472H106.431L110.462 43.2614V38.3472H112.314Z" fill="white"/>
<path d="M115.503 46.3343C114.976 46.2011 114.48 45.969 114.04 45.6503L114.671 44.2402C115.048 44.5118 115.468 44.7181 115.913 44.8506C116.375 45.0041 116.858 45.0823 117.344 45.0821C117.751 45.1115 118.158 45.0315 118.523 44.8506C118.64 44.7919 118.738 44.7017 118.807 44.5902C118.876 44.4787 118.912 44.3502 118.912 44.2192C118.916 44.1258 118.896 44.033 118.856 43.9487C118.816 43.8644 118.755 43.7911 118.681 43.7351C118.511 43.5941 118.314 43.4901 118.102 43.43C117.791 43.3295 117.475 43.2452 117.155 43.1774C116.638 43.06 116.129 42.9125 115.629 42.7354C115.223 42.5953 114.861 42.3524 114.577 42.0304C114.281 41.666 114.131 41.2048 114.156 40.7361C114.15 40.2798 114.282 39.8325 114.535 39.4523C114.826 39.0464 115.228 38.7324 115.692 38.5473C116.309 38.2943 116.973 38.1794 117.639 38.2106C118.149 38.2117 118.658 38.2717 119.154 38.3894C119.611 38.4999 120.048 38.681 120.449 38.9261L119.87 40.3467C119.187 39.943 118.411 39.7253 117.618 39.7153C117.216 39.6869 116.814 39.7746 116.46 39.9679C116.343 40.0367 116.247 40.1352 116.18 40.2535C116.114 40.3718 116.08 40.5056 116.081 40.6414C116.083 40.7761 116.125 40.9074 116.202 41.018C116.279 41.1287 116.387 41.2138 116.513 41.2622C116.941 41.4369 117.385 41.5707 117.839 41.6621C118.352 41.775 118.858 41.919 119.354 42.0935C119.758 42.2324 120.12 42.4713 120.406 42.7881C120.699 43.1543 120.848 43.6142 120.827 44.0824C120.827 44.5441 120.679 44.9937 120.406 45.3662C120.113 45.7749 119.707 46.0894 119.238 46.2712C118.641 46.5152 117.999 46.6299 117.355 46.6079C116.728 46.6035 116.104 46.5114 115.503 46.3343Z" fill="white"/>
<path d="M124.099 39.873H121.511V38.3472H128.572V39.873H125.983V46.4183H124.099V39.873Z" fill="white"/>
<path d="M131.571 46.05C130.921 45.6904 130.382 45.1603 130.011 44.5169C129.64 43.8734 129.452 43.1411 129.467 42.3986C129.462 41.6572 129.663 40.9289 130.045 40.294C130.406 39.6506 130.933 39.1163 131.571 38.7471C132.277 38.3837 133.061 38.1994 133.855 38.2104C134.649 38.1945 135.434 38.3791 136.138 38.7471C136.791 39.0998 137.339 39.619 137.727 40.2519C138.11 40.8868 138.31 41.6151 138.306 42.3565C138.312 43.0981 138.111 43.8268 137.727 44.4611C137.355 45.1276 136.805 45.6776 136.138 46.05C135.44 46.4146 134.663 46.5991 133.876 46.5867C133.075 46.6012 132.283 46.4168 131.571 46.05ZM135.149 44.661C135.529 44.4453 135.843 44.1284 136.054 43.7455C136.277 43.3323 136.39 42.8682 136.38 42.3986C136.39 41.9289 136.277 41.4648 136.054 41.0516C135.847 40.6571 135.534 40.3289 135.149 40.1046C134.749 39.8908 134.303 39.779 133.849 39.779C133.396 39.779 132.95 39.8908 132.55 40.1046C132.172 40.3233 131.859 40.6394 131.645 41.0201C131.421 41.4333 131.309 41.8974 131.319 42.367C131.309 42.8366 131.421 43.3007 131.645 43.7139C131.859 44.0946 132.172 44.4107 132.55 44.6294C132.95 44.8431 133.396 44.955 133.849 44.955C134.303 44.955 134.749 44.8431 135.149 44.6294V44.661Z" fill="white"/>
<path d="M145.325 46.4185L143.757 44.1982H142.031V46.4185H140.158V38.3474H143.662C144.305 38.3296 144.944 38.4517 145.535 38.7052C146.037 38.9282 146.462 39.2942 146.756 39.7575C147.049 40.2232 147.199 40.7647 147.188 41.3149C147.202 41.8654 147.052 42.4076 146.756 42.8723C146.454 43.3371 146.022 43.7029 145.514 43.9246L147.335 46.4185H145.325ZM144.851 40.21C144.479 39.9429 144.025 39.8128 143.568 39.8417H142.031V42.7039H143.568C144.027 42.7352 144.483 42.6008 144.851 42.3251C144.999 42.1941 145.114 42.0312 145.189 41.8489C145.264 41.6665 145.296 41.4695 145.283 41.2728C145.293 41.0796 145.259 40.8867 145.184 40.7082C145.11 40.5297 144.996 40.3703 144.851 40.2415V40.21Z" fill="white"/>
<path d="M156.5 46.4183V41.5882L154.111 45.5975H153.259L150.87 41.6935V46.4183H149.134V38.3472H150.681L153.711 43.3877L156.7 38.3472H158.236V46.4183H156.5Z" fill="white"/>
<path d="M168.917 40.7571C169.357 41.0053 169.721 41.3692 169.969 41.8094C170.236 42.2957 170.37 42.8437 170.358 43.3984C170.37 43.9531 170.236 44.5011 169.969 44.9874C169.723 45.429 169.358 45.7933 168.917 46.0397C168.445 46.2943 167.916 46.4247 167.38 46.4185C166.875 46.4281 166.377 46.3008 165.939 46.0502C165.494 45.808 165.129 45.4426 164.886 44.9979V48.6178H164.308V40.4099H164.865V41.8305C165.111 41.3886 165.476 41.0241 165.918 40.7782C166.362 40.5209 166.867 40.3866 167.38 40.3888C167.916 40.3741 168.446 40.5012 168.917 40.7571ZM168.601 45.6503C168.972 45.4373 169.275 45.1235 169.474 44.7454C169.698 44.3432 169.814 43.8901 169.811 43.43C169.82 42.9717 169.712 42.5187 169.495 42.1146C169.296 41.7365 168.993 41.4227 168.622 41.2096C168.243 40.9878 167.809 40.8749 167.37 40.8834C166.934 40.8752 166.504 40.9881 166.128 41.2096C165.757 41.4227 165.454 41.7365 165.255 42.1146C165.038 42.5187 164.93 42.9717 164.939 43.43C164.93 43.8883 165.038 44.3412 165.255 44.7454C165.454 45.1235 165.757 45.4373 166.128 45.6503C166.504 45.8719 166.934 45.9848 167.37 45.9765C167.802 45.9812 168.228 45.8685 168.601 45.6503Z" fill="white"/>
<path d="M174.02 40.715C174.456 40.469 174.95 40.3453 175.451 40.3572V40.9255H175.314C175.022 40.9084 174.731 40.9561 174.459 41.0653C174.188 41.1744 173.945 41.3423 173.746 41.5568C173.366 42.0411 173.176 42.647 173.21 43.2616V46.4185H172.631V40.4098H173.178V41.7252C173.344 41.3072 173.639 40.9532 174.02 40.715Z" fill="white"/>
<path d="M178.302 46.1026C177.867 45.8484 177.504 45.4859 177.25 45.0503C176.985 44.5672 176.851 44.023 176.861 43.4718C176.82 42.9132 176.929 42.3539 177.176 41.8513C177.428 41.4136 177.791 41.0504 178.229 40.799C178.701 40.5335 179.234 40.394 179.776 40.394C180.317 40.394 180.85 40.5335 181.323 40.799C181.76 41.0504 182.123 41.4136 182.375 41.8513C182.64 42.3344 182.774 42.8786 182.764 43.4297C182.774 43.9809 182.64 44.5251 182.375 45.0082C182.121 45.4438 181.758 45.8063 181.323 46.0605C180.847 46.3156 180.315 46.4492 179.776 46.4492C179.236 46.4492 178.704 46.3156 178.229 46.0605L178.302 46.1026ZM181.091 45.6501C181.462 45.4371 181.765 45.1233 181.964 44.7451C182.181 44.341 182.289 43.888 182.28 43.4297C182.289 42.9715 182.181 42.5185 181.964 42.1144C181.765 41.7362 181.462 41.4224 181.091 41.2094C180.712 40.9955 180.284 40.8831 179.849 40.8831C179.414 40.8831 178.986 40.9955 178.608 41.2094C178.237 41.4224 177.934 41.7362 177.734 42.1144C177.518 42.5185 177.409 42.9715 177.418 43.4297C177.409 43.888 177.518 44.341 177.734 44.7451C177.934 45.1233 178.237 45.4371 178.608 45.6501C178.986 45.864 179.414 45.9764 179.849 45.9764C180.284 45.9764 180.712 45.864 181.091 45.6501Z" fill="white"/>
<path d="M183.418 48.6388C183.217 48.5803 183.033 48.4758 182.881 48.3336L183.112 47.9127C183.388 48.1447 183.741 48.2648 184.102 48.2494C184.251 48.2576 184.401 48.2336 184.541 48.1792C184.681 48.1247 184.807 48.041 184.912 47.9337C185.108 47.6742 185.205 47.3533 185.185 47.0287V40.4098H185.764V47.0498C185.786 47.5007 185.631 47.9423 185.333 48.281C185.177 48.4391 184.99 48.5622 184.783 48.6421C184.576 48.7219 184.354 48.7567 184.133 48.744C183.891 48.7423 183.65 48.7069 183.418 48.6388ZM185.143 38.7998C185.098 38.759 185.062 38.7086 185.038 38.6522C185.014 38.5957 185.004 38.5347 185.007 38.4736C185.005 38.4111 185.017 38.3491 185.04 38.2912C185.064 38.2333 185.099 38.1808 185.143 38.1368C185.186 38.0909 185.238 38.0549 185.297 38.0312C185.355 38.0076 185.417 37.997 185.48 38C185.541 37.9978 185.602 38.0089 185.658 38.0325C185.715 38.0561 185.765 38.0917 185.806 38.1368C185.853 38.1775 185.89 38.2277 185.915 38.2839C185.941 38.3402 185.954 38.4013 185.954 38.463C185.954 38.5264 185.941 38.589 185.916 38.647C185.89 38.705 185.853 38.7571 185.806 38.7998C185.765 38.8449 185.715 38.8805 185.658 38.9041C185.602 38.9277 185.541 38.9388 185.48 38.9366C185.417 38.9396 185.355 38.929 185.297 38.9054C185.238 38.8817 185.186 38.8457 185.143 38.7998Z" fill="white"/>
<path d="M193.772 43.5667H188.574C188.583 44.0079 188.707 44.4392 188.932 44.819C189.155 45.1797 189.471 45.474 189.847 45.6713C190.243 45.8767 190.684 45.9815 191.131 45.9765C191.492 45.9736 191.849 45.9021 192.183 45.766C192.511 45.6268 192.8 45.4101 193.025 45.1346L193.362 45.5135C193.096 45.8325 192.756 46.0818 192.373 46.2396C191.962 46.4099 191.522 46.4958 191.078 46.4921C190.52 46.5061 189.968 46.3717 189.479 46.1028C189.019 45.8583 188.634 45.4948 188.363 45.0505C188.092 44.5652 187.955 44.0171 187.963 43.4615C187.954 42.9117 188.084 42.3685 188.342 41.883C188.589 41.4421 188.954 41.078 189.395 40.8307C189.839 40.563 190.349 40.4245 190.868 40.4309C191.388 40.4274 191.9 40.5617 192.351 40.8202C192.79 41.0713 193.153 41.4345 193.404 41.8725C193.654 42.3607 193.78 42.9026 193.772 43.451V43.5667ZM189.805 41.157C189.463 41.3425 189.178 41.6193 188.984 41.9567C188.776 42.3093 188.654 42.7057 188.626 43.1142H193.256C193.243 42.7048 193.123 42.306 192.909 41.9567C192.71 41.6229 192.427 41.3471 192.088 41.157C191.737 40.9708 191.345 40.8735 190.947 40.8735C190.549 40.8735 190.157 40.9708 189.805 41.157Z" fill="white"/>
<path d="M196.866 46.1025C196.426 45.854 196.062 45.4901 195.813 45.0502C195.544 44.5681 195.406 44.0238 195.413 43.4718C195.405 42.9161 195.543 42.368 195.813 41.8828C196.059 41.4409 196.424 41.0764 196.866 40.8305C197.35 40.5691 197.893 40.4352 198.444 40.4411C198.902 40.4356 199.355 40.5327 199.77 40.7253C200.157 40.9132 200.487 41.2 200.728 41.5566L200.307 41.8723C200.099 41.5789 199.82 41.3434 199.496 41.1883C199.166 41.0387 198.807 40.9632 198.444 40.9673C198.01 40.9213 197.572 40.9865 197.171 41.1567C196.802 41.371 196.497 41.6797 196.287 42.0512C196.071 42.4629 195.962 42.9226 195.971 43.3876C195.961 43.8493 196.069 44.306 196.287 44.7135C196.494 45.09 196.799 45.403 197.171 45.6185C197.561 45.8322 198 45.9409 198.444 45.9341C198.807 45.9382 199.166 45.8628 199.496 45.7132C199.82 45.5581 200.099 45.3226 200.307 45.0292L200.728 45.3449C200.487 45.6986 200.156 45.9819 199.77 46.1656C199.355 46.3583 198.902 46.4553 198.444 46.4498C197.897 46.4729 197.353 46.3533 196.866 46.1025Z" fill="white"/>
<path d="M206 46.0711C205.841 46.2126 205.655 46.32 205.453 46.3868C205.228 46.4592 204.994 46.4947 204.758 46.492C204.537 46.5151 204.313 46.4886 204.103 46.4143C203.894 46.3399 203.703 46.2198 203.546 46.0624C203.389 45.9051 203.268 45.7147 203.194 45.505C203.12 45.2953 203.093 45.0717 203.116 44.8504V40.9043H202.001V40.4097H203.116V39.0522H203.695V40.4097H205.589V40.9043H203.695V44.7978C203.671 45.1214 203.773 45.4417 203.979 45.6922C204.089 45.8019 204.221 45.8861 204.366 45.9388C204.512 45.9916 204.667 46.0116 204.821 45.9974C205.165 46.0122 205.502 45.8913 205.758 45.6607L206 46.0711Z" fill="white"/>
</g>
<defs>
<clipPath id="clip0_218_2165">
<rect width="133" height="10.744" fill="white" transform="translate(73 38)"/>
</clipPath>
</defs>
</svg>
