<svg width="16" height="16" viewBox="0 0 16 16" fill="none" xmlns="http://www.w3.org/2000/svg">
<path fill-rule="evenodd" clip-rule="evenodd" d="M5.12922 1.69083C5.33992 1.6638 5.55367 1.70676 5.73757 1.81311C5.92064 1.91899 6.06402 2.08184 6.14587 2.27678L7.36894 5.13064L7.36947 5.13186C7.4328 5.2782 7.45926 5.43785 7.44655 5.5968C7.43379 5.75621 7.38203 5.91002 7.29582 6.0447L7.29261 6.04972L6.27686 7.59457C6.73018 8.52954 7.48626 9.2838 8.42231 9.73486L8.42428 9.73353L9.94653 8.71668C10.0816 8.62546 10.2375 8.56979 10.3999 8.55484C10.5622 8.53989 10.7257 8.56614 10.8752 8.63115L10.877 8.63195L13.7238 9.85462C13.9187 9.93648 14.0814 10.0798 14.1873 10.2628C14.2936 10.4467 14.3366 10.6605 14.3096 10.8712C14.2041 11.6943 13.8024 12.4507 13.1795 12.999C12.5566 13.5473 11.7553 13.8498 10.9255 13.85C8.59823 13.85 6.36616 12.9255 4.72053 11.2799C3.0749 9.63423 2.15039 7.40228 2.15039 5.075C2.15058 4.24519 2.45312 3.44378 3.0014 2.8209C3.54965 2.19807 4.3062 1.79632 5.12922 1.69083ZM5.80664 7.75626L5.39737 8.01545C5.32538 7.86501 5.29318 7.69862 5.30384 7.53219C5.31451 7.36575 5.3677 7.20484 5.45831 7.06482L5.46022 7.06186L6.47463 5.51901L6.47371 5.51688L5.24887 2.65891C4.66267 2.73511 4.1239 3.02133 3.73326 3.46512C3.34165 3.91 3.12555 4.48232 3.12539 5.075M5.80664 7.75626L5.39835 8.01747C5.948 9.15255 6.86584 10.068 8.00233 10.6148L8.00504 10.6161C8.15806 10.6885 8.32732 10.7199 8.49614 10.7071C8.66453 10.6943 8.8267 10.638 8.96678 10.5437L8.96786 10.5429L10.4893 9.52663L13.3411 10.7514L13.3419 10.7517C13.2657 11.3379 12.9791 11.8765 12.5353 12.2671C12.0904 12.6587 11.5181 12.8748 10.9254 12.875M3.12539 5.075C3.12542 7.14365 3.9472 9.12768 5.40996 10.5904C6.87272 12.0532 8.85674 12.875 10.9254 12.875" fill="#E0E4EB"/>
</svg>
