<svg width="39" height="40" viewBox="0 0 39 40" fill="none" xmlns="http://www.w3.org/2000/svg">
<path fill-rule="evenodd" clip-rule="evenodd" d="M19.4994 6.80015C12.2093 6.80015 6.29941 12.71 6.29941 20.0001C6.29941 27.2903 12.2093 33.2001 19.4994 33.2001C26.7896 33.2001 32.6994 27.2903 32.6994 20.0001C32.6994 12.71 26.7896 6.80015 19.4994 6.80015ZM3.89941 20.0001C3.89941 11.3845 10.8838 4.40015 19.4994 4.40015C28.1151 4.40015 35.0994 11.3845 35.0994 20.0001C35.0994 28.6158 28.1151 35.6001 19.4994 35.6001C10.8838 35.6001 3.89941 28.6158 3.89941 20.0001Z" fill="#6187B5"/>
<path fill-rule="evenodd" clip-rule="evenodd" d="M16.5332 14.142C16.9234 13.9332 17.3968 13.9561 17.7651 14.2015L24.9651 19.0015C25.2989 19.2241 25.4994 19.5988 25.4994 20C25.4994 20.4012 25.2989 20.7759 24.9651 20.9985L17.7651 25.7985C17.3968 26.0439 16.9234 26.0668 16.5332 25.858C16.143 25.6492 15.8994 25.2426 15.8994 24.8V15.2C15.8994 14.7574 16.143 14.3508 16.5332 14.142ZM18.2994 17.4422V22.5578L22.1361 20L18.2994 17.4422Z" fill="#6187B5"/>
</svg>
