<svg width="24" height="18" viewBox="0 0 24 18" fill="none" xmlns="http://www.w3.org/2000/svg">
<mask id="path-1-inside-1_716_322" fill="white">
<path fill-rule="evenodd" clip-rule="evenodd" d="M23.1947 4.01845V13.9816C23.6538 14.0721 24 14.4769 24 14.9626V17C24 17.5523 23.5523 18 23 18H21.1342C20.636 18 20.2229 17.6357 20.1468 17.1589H3.85322C3.77711 17.6357 3.36399 18 2.86577 18H1C0.447716 18 0 17.5523 0 17V14.9626C0 14.4769 0.346261 14.0721 0.805393 13.9815V4.01846C0.346261 3.9279 0 3.52308 0 3.03738V1C0 0.447715 0.447715 0 1 0H2.86577C3.3035 0 3.67554 0.281249 3.81105 0.672897H20.1889C20.3245 0.281249 20.6965 0 21.1342 0H23C23.5523 0 24 0.447715 24 1V3.03738C24 3.52306 23.6538 3.92787 23.1947 4.01845Z"/>
</mask>
<path d="M23.1947 13.9816H21.1947V15.6255L22.8075 15.9437L23.1947 13.9816ZM23.1947 4.01845L22.8075 2.05627L21.1947 2.37448V4.01845H23.1947ZM20.1468 17.1589L22.1218 16.8436L21.8528 15.1589H20.1468V17.1589ZM3.85322 17.1589V15.1589H2.14718L1.87823 16.8436L3.85322 17.1589ZM0.805393 13.9815L1.19242 15.9437L2.80539 15.6256V13.9815H0.805393ZM0.805393 4.01846H2.80539V2.37441L1.19242 2.05626L0.805393 4.01846ZM3.81105 0.672897L1.92098 1.32683L2.38669 2.6729H3.81105V0.672897ZM20.1889 0.672897V2.6729H21.6133L22.079 1.32683L20.1889 0.672897ZM25.1947 13.9816V4.01845H21.1947V13.9816H25.1947ZM26 14.9626C26 13.5033 24.9601 12.2913 23.5818 12.0194L22.8075 15.9437C22.3475 15.853 22 15.4506 22 14.9626H26ZM26 17V14.9626H22V17H26ZM23 20C24.6569 20 26 18.6569 26 17H22C22 16.4477 22.4477 16 23 16V20ZM21.1342 20H23V16H21.1342V20ZM18.1718 17.4742C18.4004 18.9061 19.6377 20 21.1342 20V16C21.6343 16 22.0454 16.3652 22.1218 16.8436L18.1718 17.4742ZM3.85322 19.1589H20.1468V15.1589H3.85322V19.1589ZM2.86577 20C4.36232 20 5.59961 18.9062 5.82821 17.4742L1.87823 16.8436C1.95461 16.3652 2.36565 16 2.86577 16V20ZM1 20H2.86577V16H1V20ZM-2 17C-2 18.6569 -0.656852 20 1 20V16C1.55228 16 2 16.4477 2 17H-2ZM-2 14.9626V17H2V14.9626H-2ZM0.41837 12.0193C-0.959986 12.2912 -2 13.5033 -2 14.9626H2C2 15.4506 1.65251 15.853 1.19242 15.9437L0.41837 12.0193ZM-1.19461 4.01846V13.9815H2.80539V4.01846H-1.19461ZM1.19242 2.05626C1.65251 2.14701 2 2.54941 2 3.03738H-2C-2 4.49674 -0.959986 5.70879 0.418369 5.98065L1.19242 2.05626ZM2 3.03738V1H-2V3.03738H2ZM2 1C2 1.55228 1.55228 2 1 2V-2C-0.656854 -2 -2 -0.656854 -2 1H2ZM1 2H2.86577V-2H1V2ZM2.86577 2C2.42493 2 2.0556 1.71595 1.92098 1.32683L5.70112 0.0189626C5.29548 -1.15345 4.18207 -2 2.86577 -2V2ZM20.1889 -1.3271H3.81105V2.6729H20.1889V-1.3271ZM21.1342 -2C19.8179 -2 18.7045 -1.15345 18.2989 0.0189646L22.079 1.32683C21.9444 1.71594 21.5751 2 21.1342 2V-2ZM23 -2H21.1342V2H23V-2ZM26 1C26 -0.656857 24.6568 -2 23 -2V2C22.4477 2 22 1.55229 22 1H26ZM26 3.03738V1H22V3.03738H26ZM23.5818 5.98062C24.9601 5.7087 26 4.49669 26 3.03738H22C22 2.54943 22.3475 2.14704 22.8075 2.05627L23.5818 5.98062Z" fill="white" mask="url(#path-1-inside-1_716_322)"/>
<mask id="path-3-inside-2_716_322" fill="white">
<rect x="4.44446" y="3.71339" width="15.1111" height="10.2118" rx="1"/>
</mask>
<rect x="4.44446" y="3.71339" width="15.1111" height="10.2118" rx="1" stroke="white" stroke-width="4" mask="url(#path-3-inside-2_716_322)"/>
</svg>
