<svg width="24" height="24" viewBox="0 0 24 24" fill="none" xmlns="http://www.w3.org/2000/svg">
<path fill-rule="evenodd" clip-rule="evenodd" d="M12 8.25C9.92893 8.25 8.25 9.92893 8.25 12C8.25 14.0711 9.92893 15.75 12 15.75C14.0711 15.75 15.75 14.0711 15.75 12C15.75 9.92893 14.0711 8.25 12 8.25ZM6.75 12C6.75 9.10051 9.10051 6.75 12 6.75C14.8995 6.75 17.25 9.10051 17.25 12C17.25 14.8995 14.8995 17.25 12 17.25C9.10051 17.25 6.75 14.8995 6.75 12Z" fill="white"/>
<path fill-rule="evenodd" clip-rule="evenodd" d="M8.78825 1.99574C8.99424 1.92925 9.21892 1.95499 9.40453 2.06636L11.5969 3.38175C11.8656 3.36975 12.1347 3.36975 12.4034 3.38178L14.5867 2.07528C14.7707 1.96513 14.9932 1.93907 15.1977 2.00369C16.6304 2.45634 17.9477 3.21495 19.0582 4.22701C19.2174 4.37209 19.3065 4.57862 19.3029 4.79397L19.26 7.34232C19.4081 7.56966 19.5439 7.80472 19.667 8.0465L21.8894 9.2821C22.0765 9.38614 22.2102 9.56521 22.2569 9.77417C22.5839 11.2386 22.5873 12.7568 22.267 14.2227C22.2209 14.4335 22.0864 14.6142 21.8977 14.7187L19.6667 15.9543C19.5437 16.1959 19.4079 16.4307 19.26 16.6579L19.3029 19.2062C19.3065 19.4216 19.2174 19.6281 19.0582 19.7732C17.95 20.7831 16.6384 21.5439 15.2116 22.0045C15.0056 22.071 14.7809 22.0452 14.5953 21.9338L12.403 20.6184C12.1342 20.6305 11.8651 20.6304 11.5964 20.6184L9.41316 21.9249C9.22908 22.0351 9.00664 22.0611 8.80209 21.9965C7.36937 21.5439 6.05214 20.7853 4.9416 19.7732C4.78239 19.6281 4.69325 19.4216 4.69689 19.2062L4.73984 16.6636C4.59266 16.4339 4.45696 16.1971 4.33323 15.9539L2.11046 14.7181C1.92333 14.6141 1.78958 14.435 1.74293 14.226C1.41596 12.7616 1.41251 11.2434 1.73282 9.7775C1.77887 9.56675 1.91344 9.38603 2.10216 9.28151L4.33314 8.04588C4.45613 7.80432 4.59187 7.56947 4.73979 7.34232L4.69689 4.79397C4.69326 4.57861 4.78241 4.37207 4.94162 4.22699C6.04982 3.21714 7.36145 2.45633 8.78825 1.99574ZM6.20252 5.11573L6.24355 7.5531C6.24621 7.71101 6.19895 7.86572 6.10852 7.99519C5.90735 8.2832 5.73123 8.58792 5.58209 8.90599C5.51504 9.04899 5.40456 9.16717 5.2664 9.24369L3.13316 10.4252C2.94657 11.4669 2.94916 12.5339 3.14081 13.5747L5.26748 14.7571C5.40459 14.8333 5.51435 14.9506 5.5813 15.0925C5.73371 15.4155 5.91148 15.7259 6.11294 16.0208C6.20053 16.149 6.24617 16.3013 6.24355 16.4565L6.20254 18.8844C7.01319 19.5692 7.94022 20.103 8.93946 20.4603L11.0242 19.2128C11.1562 19.1338 11.3093 19.0973 11.4628 19.1083C11.8204 19.1338 12.1794 19.1338 12.537 19.1083C12.6908 19.0973 12.8442 19.1339 12.9764 19.2132L15.0678 20.4681C16.0638 20.1051 16.9878 19.569 17.7973 18.8845L17.7563 16.4471C17.7536 16.2892 17.8009 16.1345 17.8913 16.005C18.0925 15.717 18.2686 15.4123 18.4177 15.0942C18.4848 14.9512 18.5952 14.833 18.7334 14.7565L20.8666 13.575C21.0532 12.5333 21.0507 11.4663 20.859 10.4255L18.7323 9.2431C18.5947 9.16656 18.4846 9.04861 18.4177 8.90599C18.2686 8.58792 18.0925 8.2832 17.8913 7.99519C17.8009 7.86572 17.7536 7.71101 17.7563 7.5531L17.7973 5.11583C16.9866 4.431 16.0596 3.89721 15.0603 3.53988L12.9757 4.78742C12.8436 4.86643 12.6905 4.90292 12.537 4.89194C12.1794 4.86636 11.8204 4.86636 11.4628 4.89194C11.309 4.90294 11.1556 4.86628 11.0234 4.78697L8.93199 3.53212C7.93602 3.89511 7.01197 4.43124 6.20252 5.11573Z" fill="white"/>
</svg>
