<svg width="24" height="24" viewBox="0 0 24 24" fill="none" xmlns="http://www.w3.org/2000/svg">
<path fill-rule="evenodd" clip-rule="evenodd" d="M2.25 6.75C2.25 6.33579 2.58579 6 3 6H5.16654C6.23956 6.00132 7.29679 6.25842 8.25058 6.74999C9.20426 7.2415 10.027 7.95326 10.6507 8.82626C10.6508 8.82636 10.6506 8.82616 10.6507 8.82626L14.5693 14.301C15.0543 14.9801 15.6948 15.5343 16.4366 15.9167C17.1783 16.2989 18.0004 16.4989 18.8347 16.5C18.8349 16.5 18.8345 16.5 18.8347 16.5H21.75C22.1642 16.5 22.5 16.8358 22.5 17.25C22.5 17.6642 22.1642 18 21.75 18L18.8335 18C17.7604 17.9987 16.7032 17.7416 15.7494 17.25C14.7958 16.7585 13.973 16.0468 13.3494 15.1738C13.3493 15.1737 13.3495 15.174 13.3494 15.1738L9.43075 9.69902C8.94566 9.01991 8.30524 8.46565 7.5634 8.08332C6.8217 7.70106 5.99957 7.5011 5.16516 7.5H3C2.58579 7.5 2.25 7.16421 2.25 6.75Z" fill="white"/>
<path fill-rule="evenodd" clip-rule="evenodd" d="M18.9697 3.96967C19.2626 3.67678 19.7374 3.67678 20.0303 3.96967L22.2803 6.21967C22.5732 6.51256 22.5732 6.98744 22.2803 7.28033L20.0303 9.53033C19.7374 9.82322 19.2626 9.82322 18.9697 9.53033C18.6768 9.23744 18.6768 8.76256 18.9697 8.46967L20.6893 6.75L18.9697 5.03033C18.6768 4.73744 18.6768 4.26256 18.9697 3.96967Z" fill="white"/>
<path fill-rule="evenodd" clip-rule="evenodd" d="M18.9697 14.4697C19.2626 14.1768 19.7374 14.1768 20.0303 14.4697L22.2803 16.7197C22.5732 17.0126 22.5732 17.4874 22.2803 17.7803L20.0303 20.0303C19.7374 20.3232 19.2626 20.3232 18.9697 20.0303C18.6768 19.7374 18.6768 19.2626 18.9697 18.9697L20.6893 17.25L18.9697 15.5303C18.6768 15.2374 18.6768 14.7626 18.9697 14.4697Z" fill="white"/>
<path fill-rule="evenodd" clip-rule="evenodd" d="M18.8333 6L18.8342 6L21.7499 6C22.1641 6 22.4999 6.33579 22.4999 6.75C22.4999 7.16421 22.1641 7.5 21.7499 7.5H18.8347C18.0003 7.5011 17.1782 7.70106 16.4365 8.08332C15.6952 8.46534 15.0557 9.01844 14.5707 9.69679L14.4595 9.85439C14.2206 10.1928 13.7526 10.2735 13.4142 10.0346C13.0758 9.79573 12.9951 9.32776 13.234 8.98936L13.3489 8.82656C13.9726 7.95342 14.7955 7.24156 15.7493 6.74999C16.7031 6.25842 17.7603 6.00132 18.8333 6Z" fill="white"/>
<path fill-rule="evenodd" clip-rule="evenodd" d="M10.5856 13.9655C10.924 14.2043 11.0047 14.6723 10.7658 15.0107L10.6533 15.1701L10.6509 15.1735C10.0272 16.0466 9.20437 16.7585 8.25058 17.2501C7.29679 17.7416 6.23956 17.9987 5.16654 18.0001L3 18.0001C2.58579 18.0001 2.25 17.6643 2.25 17.2501C2.25 16.8358 2.58579 16.5001 3 16.5001H5.16513C5.99955 16.499 6.82169 16.299 7.5634 15.9167C8.30464 15.5347 8.94421 14.9816 9.42916 14.3033L9.5404 14.1457C9.77927 13.8073 10.2472 13.7266 10.5856 13.9655Z" fill="white"/>
</svg>
