<svg width="24" height="24" viewBox="0 0 24 24" fill="none" xmlns="http://www.w3.org/2000/svg">
<path fill-rule="evenodd" clip-rule="evenodd" d="M3 16.125C3 15.7108 3.33579 15.375 3.75 15.375H13.875C14.2892 15.375 14.625 15.7108 14.625 16.125C14.625 16.5392 14.2892 16.875 13.875 16.875H3.75C3.33579 16.875 3 16.5392 3 16.125Z" fill="white"/>
<path fill-rule="evenodd" clip-rule="evenodd" d="M16.875 16.125C16.875 15.7108 17.2108 15.375 17.625 15.375H20.25C20.6642 15.375 21 15.7108 21 16.125C21 16.5392 20.6642 16.875 20.25 16.875H17.625C17.2108 16.875 16.875 16.5392 16.875 16.125Z" fill="white"/>
<path fill-rule="evenodd" clip-rule="evenodd" d="M15.75 15C15.1287 15 14.625 15.5037 14.625 16.125C14.625 16.7463 15.1287 17.25 15.75 17.25C16.3713 17.25 16.875 16.7463 16.875 16.125C16.875 15.5037 16.3713 15 15.75 15ZM13.125 16.125C13.125 14.6753 14.3003 13.5 15.75 13.5C17.1997 13.5 18.375 14.6753 18.375 16.125C18.375 17.5747 17.1997 18.75 15.75 18.75C14.3003 18.75 13.125 17.5747 13.125 16.125Z" fill="white"/>
<path fill-rule="evenodd" clip-rule="evenodd" d="M3 7.875C3 7.46079 3.33579 7.125 3.75 7.125H7.875C8.28921 7.125 8.625 7.46079 8.625 7.875C8.625 8.28921 8.28921 8.625 7.875 8.625H3.75C3.33579 8.625 3 8.28921 3 7.875Z" fill="white"/>
<path fill-rule="evenodd" clip-rule="evenodd" d="M10.875 7.875C10.875 7.46079 11.2108 7.125 11.625 7.125H20.25C20.6642 7.125 21 7.46079 21 7.875C21 8.28921 20.6642 8.625 20.25 8.625H11.625C11.2108 8.625 10.875 8.28921 10.875 7.875Z" fill="white"/>
<path fill-rule="evenodd" clip-rule="evenodd" d="M9.75 6.75C9.12868 6.75 8.625 7.25368 8.625 7.875C8.625 8.49632 9.12868 9 9.75 9C10.3713 9 10.875 8.49632 10.875 7.875C10.875 7.25368 10.3713 6.75 9.75 6.75ZM7.125 7.875C7.125 6.42525 8.30025 5.25 9.75 5.25C11.1997 5.25 12.375 6.42525 12.375 7.875C12.375 9.32475 11.1997 10.5 9.75 10.5C8.30025 10.5 7.125 9.32475 7.125 7.875Z" fill="white"/>
</svg>
