<svg width="18" height="18" viewBox="0 0 18 18" fill="none" xmlns="http://www.w3.org/2000/svg">
<path d="M7.5 2.25C7.2875 2.25 7.1095 2.178 6.966 2.034C6.822 1.8905 6.75 1.7125 6.75 1.5C6.75 1.2875 6.822 1.10925 6.966 0.96525C7.1095 0.82175 7.2875 0.75 7.5 0.75H10.5C10.7125 0.75 10.8907 0.82175 11.0347 0.96525C11.1783 1.10925 11.25 1.2875 11.25 1.5C11.25 1.7125 11.1783 1.8905 11.0347 2.034C10.8907 2.178 10.7125 2.25 10.5 2.25H7.5ZM9 10.5C9.2125 10.5 9.39075 10.428 9.53475 10.284C9.67825 10.1405 9.75 9.9625 9.75 9.75V6.75C9.75 6.5375 9.67825 6.35925 9.53475 6.21525C9.39075 6.07175 9.2125 6 9 6C8.7875 6 8.6095 6.07175 8.466 6.21525C8.322 6.35925 8.25 6.5375 8.25 6.75V9.75C8.25 9.9625 8.322 10.1405 8.466 10.284C8.6095 10.428 8.7875 10.5 9 10.5ZM9 16.5C8.075 16.5 7.203 16.322 6.384 15.966C5.5655 15.6095 4.85 15.125 4.2375 14.5125C3.625 13.9 3.1405 13.1845 2.784 12.366C2.428 11.547 2.25 10.675 2.25 9.75C2.25 8.825 2.428 7.953 2.784 7.134C3.1405 6.3155 3.625 5.6 4.2375 4.9875C4.85 4.375 5.5655 3.89075 6.384 3.53475C7.203 3.17825 8.075 3 9 3C9.775 3 10.5188 3.125 11.2313 3.375C11.9438 3.625 12.6125 3.9875 13.2375 4.4625L13.7812 3.91875C13.9187 3.78125 14.0875 3.7125 14.2875 3.7125C14.4875 3.7125 14.6625 3.7875 14.8125 3.9375C14.95 4.075 15.0187 4.25 15.0187 4.4625C15.0187 4.675 14.95 4.85 14.8125 4.9875L14.2875 5.5125C14.7625 6.1375 15.125 6.80625 15.375 7.51875C15.625 8.23125 15.75 8.975 15.75 9.75C15.75 10.675 15.572 11.547 15.216 12.366C14.8595 13.1845 14.375 13.9 13.7625 14.5125C13.15 15.125 12.4345 15.6095 11.616 15.966C10.797 16.322 9.925 16.5 9 16.5ZM9 15C10.45 15 11.6875 14.4875 12.7125 13.4625C13.7375 12.4375 14.25 11.2 14.25 9.75C14.25 8.3 13.7375 7.0625 12.7125 6.0375C11.6875 5.0125 10.45 4.5 9 4.5C7.55 4.5 6.3125 5.0125 5.2875 6.0375C4.2625 7.0625 3.75 8.3 3.75 9.75C3.75 11.2 4.2625 12.4375 5.2875 13.4625C6.3125 14.4875 7.55 15 9 15Z" fill="white"/>
</svg>
