<svg width="21" height="20" viewBox="0 0 21 20" fill="none" xmlns="http://www.w3.org/2000/svg">
<path d="M13 10L9.25 7.5V12.5L13 10Z" stroke="#F4F4F4" stroke-linecap="round" stroke-linejoin="round"/>
<path d="M2.375 10C2.375 12.3282 2.61719 13.6875 2.79687 14.3907C2.84642 14.5815 2.94011 14.7579 3.07039 14.9058C3.20067 15.0538 3.36388 15.169 3.54688 15.2422C6.16406 16.2422 10.5 16.2188 10.5 16.2188C10.5 16.2188 14.8359 16.2422 17.4531 15.2422C17.6361 15.169 17.7993 15.0538 17.9296 14.9058C18.0599 14.7579 18.1536 14.5815 18.2031 14.3907C18.3828 13.6875 18.625 12.3282 18.625 10C18.625 7.67192 18.3828 6.31255 18.2031 5.60942C18.1536 5.41864 18.0599 5.24218 17.9296 5.09426C17.7993 4.94634 17.6361 4.83111 17.4531 4.75786C14.8359 3.75786 10.5 3.7813 10.5 3.7813C10.5 3.7813 6.16406 3.75786 3.54688 4.75786C3.36388 4.83111 3.20067 4.94634 3.07039 5.09426C2.94011 5.24218 2.84642 5.41864 2.79687 5.60942C2.61719 6.31255 2.375 7.67192 2.375 10Z" stroke="#F4F4F4" stroke-linecap="round" stroke-linejoin="round"/>
</svg>
